<?xml version="1.0" standalone="no"?>
<!DOCTYPE svg PUBLIC "-//W3C//DTD SVG 20010904//EN"
 "http://www.w3.org/TR/2001/REC-SVG-20010904/DTD/svg10.dtd">
<svg version="1.0" xmlns="http://www.w3.org/2000/svg"
 width="4000.000000pt" height="4000.000000pt" viewBox="0 0 4000.000000 4000.000000"
 preserveAspectRatio="xMidYMid meet">
<metadata>
Created by potrace 1.16, written by Peter Selinger 2001-2019
</metadata>
<g transform="translate(0.000000,4000.000000) scale(0.100000,-0.100000)"
fill="#000000" stroke="none">
<path d="M11286 37603 c-82 -2 -154 -7 -160 -12 -6 -5 -108 -12 -226 -16 -118
-4 -216 -11 -218 -16 -2 -5 -53 -9 -113 -9 -60 0 -109 -4 -109 -9 0 -10 -48
-17 -242 -33 -76 -6 -138 -15 -138 -19 0 -5 -25 -9 -55 -9 -30 0 -55 -4 -55
-9 0 -4 -42 -11 -92 -15 -51 -4 -94 -11 -96 -16 -2 -6 -30 -10 -63 -10 -33 0
-59 -4 -59 -10 0 -5 -20 -10 -45 -10 -25 0 -45 -4 -45 -9 0 -5 -41 -12 -91
-16 -58 -5 -86 -10 -78 -16 9 -6 -3 -9 -33 -9 -27 0 -48 -4 -48 -10 0 -5 -20
-10 -45 -10 -25 0 -45 -4 -45 -9 0 -5 -34 -12 -75 -16 -41 -4 -75 -11 -75 -16
0 -5 -15 -9 -34 -9 -19 0 -38 -4 -41 -10 -3 -5 -19 -10 -35 -10 -16 0 -31 -4
-34 -9 -4 -5 -40 -12 -81 -16 -41 -4 -72 -11 -69 -16 3 -5 -8 -9 -25 -9 -16 0
-33 -4 -36 -10 -3 -5 -21 -10 -40 -10 -19 0 -36 -4 -40 -9 -3 -5 -34 -13 -70
-16 -36 -4 -62 -11 -59 -16 3 -5 -9 -9 -25 -9 -17 0 -31 -4 -31 -9 0 -9 -17
-14 -122 -33 -38 -7 -68 -16 -68 -20 0 -4 -9 -8 -20 -8 -11 0 -20 -4 -20 -9 0
-5 -25 -12 -55 -16 -30 -3 -57 -11 -60 -16 -4 -5 -22 -9 -41 -9 -19 0 -34 -4
-34 -10 0 -5 -11 -10 -24 -10 -13 0 -26 -5 -28 -11 -2 -5 -22 -13 -46 -16 -23
-3 -42 -10 -42 -14 0 -5 -16 -9 -35 -9 -19 0 -35 -4 -35 -10 0 -5 -11 -10 -25
-10 -14 0 -25 -4 -25 -9 0 -5 -20 -12 -45 -16 -25 -3 -43 -10 -40 -16 4 -5 -8
-9 -24 -9 -17 0 -31 -4 -31 -10 0 -5 -11 -10 -25 -10 -14 0 -25 -4 -25 -9 0
-5 -20 -12 -45 -16 -25 -3 -43 -10 -40 -16 4 -5 -8 -9 -24 -9 -17 0 -31 -3
-31 -8 0 -9 -46 -30 -88 -38 -17 -4 -32 -10 -32 -15 0 -5 -11 -9 -25 -9 -14 0
-25 -4 -25 -10 0 -5 -8 -10 -19 -10 -10 0 -32 -7 -47 -15 -16 -8 -39 -15 -51
-15 -12 0 -23 -4 -25 -8 -5 -12 -112 -62 -133 -62 -10 0 -25 -8 -34 -18 -9
-11 -33 -22 -53 -26 -21 -4 -38 -11 -38 -16 0 -6 -9 -10 -20 -10 -11 0 -20 -4
-20 -10 0 -5 -9 -10 -21 -10 -11 0 -27 -7 -35 -15 -9 -8 -26 -15 -40 -15 -13
0 -24 -4 -24 -10 0 -5 -9 -10 -20 -10 -11 0 -20 -4 -20 -10 0 -5 -7 -10 -15
-10 -8 0 -15 -4 -15 -10 0 -5 -16 -12 -35 -16 -19 -3 -35 -10 -35 -15 0 -5 -7
-9 -15 -9 -8 0 -15 -4 -15 -10 0 -5 -11 -10 -24 -10 -13 0 -29 -7 -36 -15 -7
-8 -21 -15 -31 -15 -11 0 -19 -4 -19 -10 0 -5 -7 -10 -15 -10 -8 0 -15 -4 -15
-10 0 -5 -9 -10 -20 -10 -11 0 -20 -4 -20 -9 0 -5 -15 -13 -32 -17 -18 -3 -40
-15 -49 -25 -9 -11 -21 -19 -27 -19 -5 0 -23 -7 -38 -15 -16 -8 -36 -15 -45
-15 -9 0 -19 -7 -22 -15 -6 -15 -77 -55 -98 -55 -6 0 -19 -8 -28 -19 -9 -10
-27 -22 -41 -26 -14 -4 -32 -16 -41 -26 -9 -11 -24 -19 -33 -19 -9 0 -16 -4
-16 -10 0 -5 -16 -12 -35 -16 -19 -3 -32 -10 -29 -15 3 -5 -2 -9 -10 -9 -9 0
-16 -4 -16 -10 0 -5 -7 -10 -15 -10 -8 0 -15 -4 -15 -10 0 -5 -6 -10 -14 -10
-8 0 -21 -6 -28 -13 -7 -7 -29 -21 -48 -30 -48 -24 -72 -39 -90 -58 -8 -8 -33
-23 -55 -34 -22 -10 -47 -25 -55 -34 -8 -9 -31 -25 -50 -35 -19 -11 -37 -22
-40 -25 -9 -10 -44 -31 -62 -37 -10 -4 -18 -10 -18 -15 0 -5 -7 -9 -15 -9 -8
0 -15 -4 -15 -10 0 -5 -5 -10 -11 -10 -6 0 -17 -6 -24 -12 -32 -29 -45 -38
-52 -38 -5 0 -15 -9 -23 -20 -8 -11 -20 -20 -27 -20 -7 0 -22 -10 -35 -23 -13
-13 -30 -26 -38 -30 -41 -21 -59 -34 -53 -40 3 -4 -1 -7 -10 -7 -9 0 -17 -4
-17 -8 0 -5 -16 -17 -35 -28 -19 -10 -35 -22 -35 -26 0 -5 -5 -8 -10 -8 -6 0
-23 -11 -38 -25 -15 -14 -32 -25 -39 -25 -7 0 -13 -4 -13 -8 0 -4 -12 -15 -28
-24 -15 -9 -42 -30 -60 -47 -17 -17 -36 -31 -41 -31 -6 0 -21 -11 -35 -25 -14
-14 -30 -25 -36 -25 -5 0 -10 -4 -10 -10 0 -5 -11 -12 -25 -16 -14 -3 -25 -10
-25 -15 0 -11 -49 -59 -61 -59 -5 0 -25 -16 -45 -35 -19 -19 -39 -35 -45 -35
-5 0 -25 -15 -43 -32 -19 -18 -43 -40 -54 -48 -34 -27 -125 -104 -163 -140
-21 -19 -57 -51 -80 -70 -131 -110 -533 -502 -714 -696 -38 -41 -104 -111
-145 -155 -72 -76 -89 -96 -162 -182 -18 -21 -51 -58 -73 -82 -22 -24 -49 -55
-60 -70 -11 -14 -33 -41 -50 -59 -49 -55 -65 -76 -58 -76 3 0 -3 -8 -14 -17
-11 -10 -28 -31 -39 -48 -18 -29 -30 -43 -94 -113 -16 -19 -30 -37 -30 -42 0
-5 -16 -25 -35 -44 -19 -20 -35 -41 -35 -46 0 -6 -5 -10 -11 -10 -5 0 -8 -4
-5 -8 3 -5 -4 -15 -15 -22 -10 -8 -19 -20 -19 -27 0 -7 -5 -13 -11 -13 -5 0
-8 -4 -5 -8 3 -5 -4 -15 -15 -22 -10 -8 -19 -20 -19 -27 0 -7 -4 -13 -9 -13
-5 0 -16 -15 -24 -32 -9 -18 -25 -40 -36 -48 -12 -8 -21 -23 -21 -33 0 -9 -6
-20 -14 -23 -8 -3 -19 -18 -26 -34 -7 -16 -18 -31 -26 -34 -8 -3 -20 -19 -25
-36 -6 -16 -15 -30 -20 -30 -5 0 -9 -5 -9 -10 0 -6 -11 -23 -25 -38 -14 -15
-25 -32 -25 -39 0 -7 -4 -13 -10 -13 -5 0 -10 -5 -10 -11 0 -6 -6 -17 -12 -24
-30 -33 -38 -45 -38 -55 0 -5 -4 -10 -10 -10 -5 0 -10 -8 -10 -18 0 -11 -9
-27 -20 -37 -11 -10 -18 -21 -15 -25 2 -3 -5 -13 -16 -20 -10 -8 -19 -20 -19
-27 0 -7 -5 -13 -11 -13 -5 0 -7 -4 -4 -10 3 -5 1 -10 -4 -10 -6 0 -11 -9 -11
-20 0 -11 -4 -20 -10 -20 -5 0 -10 -5 -10 -11 0 -7 -9 -20 -21 -30 -11 -10
-18 -23 -14 -28 3 -6 1 -11 -4 -11 -6 0 -11 -9 -11 -19 0 -10 -6 -21 -14 -24
-14 -6 -39 -44 -52 -79 -3 -10 -10 -18 -15 -18 -5 0 -9 -8 -9 -18 0 -9 -9 -23
-21 -30 -12 -8 -18 -19 -15 -28 3 -8 1 -14 -4 -14 -6 0 -10 -6 -10 -13 0 -7
-9 -19 -20 -27 -11 -8 -20 -22 -20 -32 0 -10 -5 -18 -11 -18 -6 0 -9 -7 -5
-15 3 -8 1 -15 -4 -15 -6 0 -10 -9 -10 -20 0 -11 -4 -20 -10 -20 -5 0 -10 -5
-10 -11 0 -7 -9 -20 -21 -30 -11 -10 -18 -23 -14 -28 3 -6 1 -11 -4 -11 -6 0
-11 -9 -11 -20 0 -11 -4 -20 -10 -20 -5 0 -10 -7 -10 -15 0 -8 -4 -15 -10 -15
-5 0 -10 -9 -10 -20 0 -11 -7 -23 -15 -26 -8 -4 -15 -15 -15 -25 0 -10 -3 -19
-8 -19 -8 0 -42 -73 -42 -90 0 -6 -4 -10 -10 -10 -5 0 -10 -7 -10 -16 0 -9 -8
-24 -18 -33 -11 -9 -22 -33 -26 -53 -4 -21 -11 -38 -16 -38 -6 0 -10 -9 -10
-20 0 -11 -4 -20 -10 -20 -5 0 -10 -7 -10 -15 0 -8 -4 -15 -9 -15 -5 0 -12
-16 -15 -35 -4 -19 -11 -35 -16 -35 -6 0 -10 -9 -10 -20 0 -11 -4 -20 -10 -20
-5 0 -10 -7 -10 -15 0 -8 -5 -15 -11 -15 -7 0 -9 -10 -7 -25 3 -14 1 -25 -3
-25 -5 0 -9 -9 -9 -20 0 -11 -4 -20 -10 -20 -5 0 -10 -7 -10 -15 0 -8 -4 -15
-10 -15 -5 0 -10 -9 -10 -20 0 -11 -5 -20 -11 -20 -6 0 -9 -7 -5 -15 3 -8 1
-15 -4 -15 -6 0 -10 -13 -10 -30 0 -16 -4 -30 -10 -30 -5 0 -10 -7 -10 -15 0
-8 -4 -15 -10 -15 -5 0 -10 -9 -10 -19 0 -11 -5 -23 -10 -26 -6 -4 -8 -15 -5
-26 4 -11 2 -19 -4 -19 -6 0 -11 -7 -11 -15 0 -8 -4 -15 -10 -15 -5 0 -10 -11
-10 -25 0 -14 -4 -25 -10 -25 -5 0 -10 -14 -10 -30 0 -18 -6 -33 -15 -36 -8
-4 -15 -15 -15 -25 0 -10 -4 -19 -10 -19 -5 0 -10 -16 -10 -35 0 -19 -4 -35
-9 -35 -5 0 -12 -20 -15 -45 -4 -25 -11 -45 -17 -45 -5 0 -9 -11 -9 -25 0 -14
-4 -25 -10 -25 -5 0 -10 -7 -10 -15 0 -8 -4 -15 -9 -15 -5 0 -13 -25 -16 -55
-4 -30 -11 -55 -16 -55 -5 0 -9 -7 -9 -15 0 -8 -4 -15 -10 -15 -5 0 -10 -11
-10 -24 0 -14 -4 -27 -10 -31 -5 -3 -12 -32 -16 -65 -4 -33 -11 -60 -15 -60
-5 0 -9 -11 -9 -25 0 -14 -3 -25 -8 -25 -11 0 -30 -50 -37 -102 -4 -27 -11
-48 -16 -48 -5 0 -9 -13 -9 -30 0 -16 -4 -30 -10 -30 -5 0 -10 -16 -10 -35 0
-19 -5 -35 -11 -35 -6 0 -9 -7 -5 -15 3 -8 1 -15 -4 -15 -6 0 -10 -16 -10 -35
0 -19 -4 -35 -10 -35 -5 0 -10 -16 -10 -35 0 -19 -3 -35 -8 -35 -9 0 -33 -100
-26 -111 3 -5 0 -9 -5 -9 -6 0 -11 -11 -11 -24 0 -14 -4 -28 -10 -31 -5 -3
-10 -17 -10 -31 0 -13 -4 -32 -10 -42 -5 -9 -14 -46 -20 -82 -17 -102 -22
-120 -31 -120 -5 0 -9 -16 -9 -35 0 -19 -4 -35 -9 -35 -4 0 -11 -29 -14 -65
-4 -36 -11 -74 -17 -84 -5 -11 -10 -33 -10 -50 0 -17 -4 -31 -10 -31 -5 0 -10
-21 -10 -46 0 -25 -4 -43 -9 -40 -4 3 -11 -26 -15 -65 -3 -39 -11 -79 -16 -89
-6 -10 -10 -37 -10 -59 0 -22 -4 -43 -10 -46 -5 -3 -10 -22 -10 -41 0 -19 -4
-34 -9 -34 -5 0 -12 -45 -16 -100 -4 -55 -11 -103 -16 -106 -5 -3 -9 -23 -9
-45 0 -21 -4 -39 -10 -39 -6 0 -10 -30 -10 -70 0 -38 -4 -70 -9 -70 -5 0 -12
-52 -16 -115 -4 -63 -11 -118 -16 -121 -5 -3 -9 -41 -9 -85 0 -46 -4 -79 -10
-79 -5 0 -10 -20 -10 -44 0 -25 -5 -48 -10 -51 -7 -4 -11 -46 -11 -98 -1 -172
-11 -312 -22 -319 -17 -10 -17 -1856 -1 -1866 12 -7 23 -168 23 -329 0 -46 5
-84 11 -88 5 -3 10 -26 10 -51 0 -24 5 -44 10 -44 6 0 10 -33 10 -80 0 -44 4
-80 8 -80 5 0 12 -55 16 -122 4 -68 11 -127 16 -132 6 -6 10 -41 10 -78 0 -39
4 -68 10 -68 6 0 10 -15 10 -33 0 -18 4 -37 9 -42 6 -6 13 -56 17 -112 4 -57
11 -103 15 -103 5 0 9 -20 9 -45 0 -25 5 -45 10 -45 6 0 10 -16 10 -36 0 -19
5 -44 10 -54 6 -11 13 -53 17 -95 3 -41 10 -75 14 -75 5 0 9 -16 9 -35 0 -19
4 -35 9 -35 5 0 11 -17 15 -37 24 -163 30 -193 38 -193 4 0 8 -18 8 -40 0 -22
5 -40 10 -40 6 0 10 -14 10 -31 0 -17 5 -39 10 -50 6 -10 13 -48 17 -84 3 -36
10 -65 14 -65 5 0 9 -16 9 -35 0 -19 4 -35 9 -35 9 0 21 -62 21 -107 0 -12 5
-25 10 -28 6 -3 10 -22 10 -41 0 -19 5 -34 10 -34 6 0 10 -18 10 -40 0 -22 5
-40 10 -40 6 0 10 -15 10 -34 0 -19 5 -38 10 -41 6 -4 8 -10 5 -15 -3 -5 -1
-11 5 -15 5 -3 10 -22 10 -41 0 -19 5 -34 10 -34 6 0 10 -16 10 -35 0 -19 4
-35 9 -35 4 0 11 -26 15 -57 7 -60 25 -113 38 -113 5 0 8 -16 8 -35 0 -19 4
-35 9 -35 4 0 11 -27 15 -60 4 -33 11 -60 16 -60 6 0 10 -7 10 -15 0 -24 17
-17 43 18 200 271 272 363 330 422 38 39 81 88 97 110 40 58 320 325 452 432
104 84 115 95 130 145 52 160 52 161 -24 493 -11 50 -24 108 -29 130 -4 22
-17 82 -29 134 -11 52 -20 111 -20 132 0 21 -4 48 -9 61 -5 13 -16 73 -25 133
-10 61 -24 140 -32 177 -8 36 -18 118 -24 182 -5 64 -12 121 -16 128 -9 14
-23 130 -32 273 -4 61 -11 115 -14 121 -4 6 -15 123 -25 260 -33 473 -21 1717
19 1974 5 36 14 115 19 175 12 155 25 271 38 335 6 30 18 107 26 170 32 225
55 365 65 394 6 16 10 44 10 62 0 51 47 253 127 544 18 69 47 173 62 231 16
58 38 126 50 152 12 25 21 52 21 59 0 16 55 190 74 233 7 17 25 66 41 110 38
110 94 256 106 279 6 10 19 46 30 79 11 34 30 84 43 112 13 27 41 91 61 140
20 50 50 119 67 155 18 36 41 88 53 115 41 95 147 305 156 310 5 4 9 13 9 21
0 9 16 39 35 68 19 29 35 58 35 64 0 6 10 28 22 49 12 21 35 62 52 92 17 29
41 70 53 90 12 20 36 63 52 96 29 55 54 97 194 320 106 169 143 224 229 341
48 67 88 125 88 129 0 9 58 92 79 113 10 9 55 68 100 129 45 62 88 116 95 120
7 5 31 33 53 63 192 263 873 962 1293 1327 213 185 586 467 854 646 221 147
200 133 316 204 133 81 132 81 160 95 14 7 36 20 50 29 121 77 769 419 795
419 2 0 37 15 77 34 40 18 96 44 123 56 28 12 66 30 85 39 19 10 53 24 75 31
22 7 49 19 60 26 11 7 65 30 120 52 55 22 111 44 125 50 14 6 66 25 115 43 50
17 104 37 120 44 17 8 53 21 80 30 28 8 59 19 70 24 41 17 306 101 475 150 96
28 189 55 205 60 43 14 310 77 375 90 30 6 105 20 165 32 61 12 133 25 160 29
28 4 104 17 170 28 66 11 138 23 160 25 22 3 72 10 110 16 180 27 481 57 728
72 89 5 218 14 287 18 168 12 527 12 620 0 41 -5 149 -13 240 -18 251 -15 382
-28 740 -76 58 -7 146 -19 195 -26 50 -6 115 -16 145 -21 30 -5 80 -13 110
-17 52 -8 216 -39 325 -62 57 -11 87 -18 235 -53 58 -13 148 -34 200 -46 52
-12 102 -25 112 -30 9 -5 55 -18 102 -30 48 -11 97 -25 109 -29 12 -5 65 -21
117 -36 134 -38 218 -64 270 -86 25 -10 63 -25 85 -33 22 -7 78 -28 125 -46
47 -17 96 -36 110 -40 41 -14 174 -69 193 -80 10 -6 50 -22 90 -36 40 -15 88
-35 107 -45 19 -10 63 -30 97 -44 191 -78 464 -214 688 -343 39 -23 97 -56
129 -74 71 -40 79 -45 136 -84 82 -56 130 -79 144 -69 8 6 101 73 207 150 265
193 359 253 419 270 14 4 37 16 51 26 14 10 45 25 70 34 24 10 62 25 84 35 22
10 67 25 100 35 33 10 80 25 105 35 25 10 81 25 125 35 114 25 263 63 276 70
10 7 -21 45 -36 45 -4 0 -13 6 -20 13 -31 27 -44 37 -51 37 -4 0 -14 8 -23 18
-9 10 -31 27 -48 37 -18 11 -33 23 -33 27 0 4 -7 8 -16 8 -8 0 -13 4 -10 9 3
5 -5 12 -19 15 -14 4 -25 11 -25 16 0 6 -7 10 -15 10 -8 0 -15 4 -15 8 0 4
-15 16 -32 27 -18 10 -40 26 -48 34 -16 17 -45 36 -70 48 -8 4 -25 17 -38 30
-13 13 -27 23 -33 23 -5 0 -19 9 -31 20 -12 11 -28 20 -37 20 -8 0 -11 3 -8 6
4 4 -13 16 -36 28 -23 11 -52 31 -65 43 -13 13 -29 23 -37 23 -8 0 -15 5 -15
10 0 6 -9 10 -20 10 -11 0 -20 5 -20 10 0 6 -7 10 -17 10 -9 0 -13 3 -10 7 7
6 -23 27 -55 39 -10 3 -18 10 -18 15 0 5 -9 9 -20 9 -11 0 -20 4 -20 9 0 5
-11 12 -25 15 -14 4 -25 11 -25 16 0 6 -7 10 -15 10 -8 0 -15 4 -15 9 0 5 -15
12 -33 15 -18 3 -39 15 -47 26 -8 11 -22 20 -32 20 -10 0 -18 3 -18 8 0 7 -4
10 -77 46 -21 11 -40 23 -43 27 -3 3 -30 19 -60 35 -30 16 -56 32 -58 37 -2 4
-8 7 -13 7 -16 0 -89 35 -89 42 0 5 -9 8 -20 8 -11 0 -20 4 -20 9 0 5 -10 13
-22 16 -41 12 -78 30 -78 37 0 5 -9 8 -20 8 -11 0 -20 5 -20 10 0 6 -8 10 -18
10 -10 0 -27 7 -38 15 -10 8 -29 15 -41 15 -13 0 -23 3 -23 8 0 4 -19 15 -42
25 -24 10 -55 24 -70 30 -16 7 -28 15 -28 19 0 5 -10 8 -22 8 -13 0 -36 7 -52
15 -15 8 -37 15 -47 15 -11 0 -19 5 -19 10 0 6 -7 10 -15 10 -8 0 -15 4 -15 9
0 5 -18 12 -40 16 -22 4 -42 11 -46 16 -3 5 -16 9 -30 9 -13 0 -24 5 -24 10 0
6 -9 10 -20 10 -11 0 -20 4 -20 10 0 5 -18 13 -40 16 -22 4 -40 10 -40 15 0 5
-9 9 -20 9 -11 0 -20 5 -20 10 0 6 -11 10 -25 10 -14 0 -25 4 -25 9 0 5 -18
12 -40 16 -22 4 -42 11 -46 16 -3 5 -16 9 -30 9 -13 0 -24 5 -24 10 0 6 -11
10 -25 10 -14 0 -25 4 -25 9 0 6 -20 13 -45 17 -25 3 -45 10 -45 15 0 5 -11 9
-25 9 -14 0 -25 5 -25 10 0 6 -14 10 -31 10 -16 0 -28 4 -25 9 3 5 -19 12 -49
16 -30 3 -55 11 -55 16 0 5 -11 9 -25 9 -14 0 -25 5 -25 10 0 6 -15 10 -34 10
-19 0 -37 4 -40 9 -3 5 -30 12 -61 16 -30 3 -57 11 -60 16 -4 5 -15 9 -26 9
-10 0 -19 4 -19 9 0 4 -28 11 -62 15 -34 3 -67 11 -72 16 -6 6 -25 10 -43 10
-18 0 -33 5 -33 10 0 6 -13 10 -30 10 -16 0 -30 4 -30 9 0 5 -29 12 -65 16
-36 3 -67 11 -70 16 -4 5 -22 9 -41 9 -19 0 -34 5 -34 10 0 6 -16 10 -35 10
-19 0 -35 4 -35 9 0 4 -31 12 -70 15 -38 4 -72 11 -75 17 -4 5 -24 9 -46 9
-21 0 -39 5 -39 10 0 6 -16 10 -35 10 -19 0 -35 4 -35 9 0 5 -34 12 -75 16
-41 4 -75 11 -75 16 0 5 -20 9 -45 9 -25 0 -45 5 -45 10 0 6 -21 10 -47 10
-30 0 -43 3 -35 9 9 5 -21 11 -77 15 -50 4 -91 12 -91 17 0 5 -25 9 -55 9 -30
0 -55 5 -55 10 0 6 -22 10 -50 10 -27 0 -50 4 -50 9 0 5 -45 13 -100 17 -55 3
-103 11 -106 15 -3 5 -32 9 -65 9 -32 0 -59 4 -59 8 0 5 -64 14 -142 20 -184
14 -241 22 -253 33 -5 5 -55 9 -112 9 -57 0 -103 4 -103 9 0 5 -93 12 -207 15
-115 4 -215 11 -224 15 -18 10 -468 19 -683 14z"/>
<path d="M27697 37573 c-99 -2 -156 -7 -152 -13 4 -6 -42 -10 -124 -10 -72 0
-131 -4 -131 -9 0 -11 -61 -19 -272 -33 -93 -6 -168 -15 -168 -20 0 -4 -29 -8
-65 -8 -36 0 -65 -4 -65 -9 0 -4 -44 -11 -97 -15 -54 -4 -99 -11 -101 -16 -2
-6 -26 -10 -53 -10 -27 0 -49 -4 -49 -10 0 -5 -24 -10 -54 -10 -30 0 -56 -4
-58 -10 -1 -5 -45 -12 -96 -16 -56 -4 -88 -10 -80 -15 8 -5 -5 -9 -34 -9 -27
0 -48 -4 -48 -10 0 -5 -20 -10 -44 -10 -25 0 -47 -4 -51 -9 -3 -5 -41 -13 -85
-17 -44 -3 -80 -11 -80 -15 0 -5 -16 -9 -35 -9 -19 0 -35 -4 -35 -10 0 -5 -15
-10 -34 -10 -19 0 -37 -4 -40 -9 -4 -5 -40 -12 -81 -16 -41 -4 -75 -11 -75
-16 0 -5 -16 -9 -35 -9 -19 0 -35 -4 -35 -10 0 -5 -15 -10 -34 -10 -19 0 -37
-4 -40 -9 -3 -4 -33 -11 -66 -15 -33 -4 -60 -11 -60 -16 0 -6 -11 -10 -25 -10
-14 0 -25 -4 -25 -10 0 -5 -15 -10 -34 -10 -19 0 -37 -4 -41 -9 -3 -5 -34 -13
-70 -16 -36 -4 -65 -11 -65 -16 0 -5 -9 -9 -20 -9 -11 0 -20 -4 -20 -9 0 -5
-25 -12 -55 -16 -30 -3 -57 -11 -60 -16 -4 -5 -22 -9 -41 -9 -19 0 -34 -4 -34
-10 0 -5 -11 -10 -25 -10 -14 0 -25 -4 -25 -9 0 -5 -22 -12 -50 -16 -27 -4
-50 -11 -50 -16 0 -5 -13 -9 -30 -9 -16 0 -30 -4 -30 -10 0 -5 -11 -10 -25
-10 -14 0 -25 -4 -25 -9 0 -5 -22 -12 -50 -16 -27 -4 -50 -11 -50 -16 0 -5
-11 -9 -25 -9 -14 0 -25 -4 -25 -10 0 -5 -13 -10 -30 -10 -16 0 -30 -4 -30
-10 0 -5 -16 -12 -35 -16 -19 -3 -35 -10 -35 -15 0 -5 -11 -9 -25 -9 -14 0
-25 -4 -25 -10 0 -5 -11 -10 -24 -10 -14 0 -28 -4 -31 -10 -3 -5 -15 -10 -25
-10 -10 0 -25 -7 -34 -15 -8 -8 -24 -15 -35 -15 -12 0 -21 -4 -21 -10 0 -5 -8
-10 -19 -10 -10 0 -32 -7 -47 -15 -16 -8 -38 -15 -49 -15 -11 0 -27 -9 -35
-20 -8 -11 -22 -20 -31 -20 -9 0 -30 -7 -45 -15 -16 -8 -39 -15 -51 -15 -13 0
-23 -3 -23 -8 0 -8 -73 -42 -90 -42 -6 0 -10 -4 -10 -10 0 -5 -9 -10 -20 -10
-11 0 -20 -4 -20 -10 0 -5 -9 -10 -21 -10 -11 0 -27 -7 -35 -15 -9 -8 -24 -15
-35 -15 -11 0 -17 -4 -14 -10 4 -6 -7 -10 -24 -10 -17 0 -31 -4 -31 -10 0 -5
-7 -10 -15 -10 -8 0 -15 -4 -15 -9 0 -5 -14 -12 -30 -16 -17 -4 -28 -11 -24
-16 3 -5 -4 -9 -15 -9 -12 0 -21 -4 -21 -10 0 -5 -11 -10 -25 -10 -14 0 -25
-4 -25 -10 0 -5 -11 -12 -25 -16 -14 -3 -25 -10 -25 -15 0 -5 -9 -9 -19 -9
-11 0 -21 -3 -23 -7 -4 -11 -64 -43 -78 -43 -7 0 -20 -8 -29 -18 -16 -18 -80
-52 -98 -52 -5 0 -15 -9 -23 -20 -8 -11 -22 -20 -32 -20 -10 0 -18 -4 -18 -9
0 -5 -14 -12 -30 -16 -17 -4 -42 -18 -55 -31 -13 -13 -32 -24 -42 -24 -10 0
-25 -9 -33 -20 -8 -11 -20 -20 -26 -20 -6 0 -17 -7 -24 -15 -7 -8 -21 -15 -31
-15 -11 0 -19 -4 -19 -10 0 -5 -5 -10 -11 -10 -7 0 -19 -8 -28 -19 -9 -10 -26
-21 -38 -25 -13 -4 -23 -12 -23 -17 0 -5 -5 -9 -11 -9 -6 0 -24 -11 -41 -25
-16 -14 -36 -25 -44 -25 -8 0 -14 -4 -14 -10 0 -5 -6 -10 -13 -10 -7 0 -19 -9
-27 -20 -8 -11 -20 -20 -26 -20 -7 0 -19 -6 -26 -12 -28 -27 -87 -68 -97 -68
-6 0 -11 -4 -11 -8 0 -4 -12 -15 -27 -24 -16 -9 -37 -25 -49 -35 -22 -20 -51
-39 -74 -50 -8 -4 -27 -19 -44 -35 -16 -15 -33 -28 -37 -28 -4 0 -19 -11 -33
-25 -14 -14 -30 -25 -36 -25 -5 0 -10 -4 -10 -10 0 -5 -11 -12 -25 -16 -14 -3
-22 -10 -19 -15 3 -5 -2 -9 -10 -9 -9 0 -16 -7 -16 -15 0 -15 14 -19 160 -54
230 -54 272 -65 360 -92 52 -17 119 -41 148 -55 29 -13 58 -24 65 -24 23 0
214 -98 313 -161 104 -66 364 -249 400 -281 27 -24 44 -23 85 8 31 23 84 54
158 93 14 7 67 37 116 66 50 29 117 67 150 85 103 57 488 248 546 270 30 12
79 33 109 47 114 52 137 62 225 94 50 18 97 39 106 46 8 7 21 13 27 13 7 0 20
4 30 10 9 5 51 21 92 36 41 15 111 40 155 56 44 16 94 33 110 38 89 25 204 62
235 74 19 8 82 27 140 42 58 14 130 35 160 45 50 16 153 41 340 85 126 29 146
33 215 45 39 6 115 21 170 31 234 47 295 55 880 122 331 38 406 41 1060 40
522 0 683 -4 820 -17 425 -41 488 -47 494 -52 4 -2 30 -7 57 -10 47 -5 174
-24 314 -46 75 -11 319 -55 400 -71 30 -6 87 -19 125 -30 39 -10 131 -34 205
-53 74 -20 149 -42 167 -50 17 -8 36 -15 42 -15 19 0 235 -62 246 -70 6 -4 30
-13 55 -20 25 -6 68 -19 95 -29 86 -31 118 -42 170 -57 28 -9 68 -23 90 -33
22 -10 74 -30 115 -46 41 -15 83 -31 93 -36 9 -5 52 -22 95 -38 42 -15 97 -37
122 -49 25 -11 110 -48 190 -82 201 -86 794 -381 915 -456 55 -35 118 -73 140
-86 22 -14 69 -42 105 -64 36 -22 94 -58 130 -79 272 -161 739 -493 1015 -720
53 -44 116 -96 140 -115 24 -19 87 -76 142 -126 54 -51 161 -150 238 -222 77
-71 177 -166 222 -211 231 -231 592 -640 801 -910 140 -181 222 -290 222 -296
0 -4 41 -63 91 -132 50 -70 94 -134 97 -142 3 -9 23 -39 44 -67 21 -28 38 -55
38 -60 0 -6 20 -39 45 -74 25 -35 45 -68 45 -73 0 -4 11 -23 25 -41 14 -18 25
-36 25 -41 0 -4 20 -38 46 -76 25 -37 63 -103 86 -146 55 -105 71 -134 90
-163 9 -14 19 -36 23 -49 4 -12 17 -37 29 -55 21 -31 266 -519 266 -530 0 -3
14 -36 31 -73 17 -38 42 -96 55 -131 13 -35 31 -73 38 -85 8 -12 24 -47 36
-77 11 -30 25 -64 30 -75 5 -11 18 -49 30 -85 12 -36 33 -90 45 -120 13 -30
35 -89 50 -130 14 -41 35 -97 45 -125 10 -27 30 -86 44 -130 15 -44 46 -141
71 -215 24 -74 49 -155 54 -180 6 -25 22 -85 36 -135 40 -143 120 -476 128
-530 2 -16 14 -75 25 -130 12 -55 26 -142 32 -194 6 -51 13 -98 17 -104 3 -5
10 -42 14 -81 4 -39 12 -100 18 -136 5 -36 14 -96 20 -135 5 -38 11 -110 12
-160 1 -49 6 -101 11 -115 17 -44 43 -427 57 -835 14 -408 -24 -1400 -57
-1485 -5 -14 -10 -70 -11 -125 -2 -91 -13 -197 -41 -375 -5 -36 -12 -85 -14
-110 -2 -25 -9 -74 -15 -110 -6 -36 -18 -112 -27 -170 -9 -58 -20 -125 -25
-150 -5 -25 -11 -65 -14 -90 -4 -25 -15 -83 -27 -130 -11 -47 -24 -110 -28
-140 -5 -30 -14 -75 -20 -100 -23 -94 -24 -147 -2 -197 11 -27 36 -113 56
-192 40 -160 37 -156 188 -269 34 -26 123 -105 197 -177 187 -181 188 -182
261 -269 36 -43 78 -90 94 -105 16 -14 76 -89 133 -166 109 -146 135 -166 141
-107 2 17 7 32 13 32 5 0 9 14 9 30 0 17 4 30 9 30 5 0 13 29 16 65 4 36 11
65 16 65 5 0 9 9 9 20 0 11 5 20 10 20 6 0 10 16 10 35 0 19 5 35 10 35 6 0
10 17 10 38 0 20 5 55 11 77 6 22 13 52 16 68 3 15 9 27 14 27 5 0 9 16 9 35
0 19 4 35 9 35 5 0 12 32 16 70 4 39 11 70 16 70 5 0 9 16 9 35 0 19 5 35 10
35 6 0 10 18 10 40 0 22 4 40 9 40 5 0 12 32 16 70 4 39 11 70 16 70 5 0 9 18
9 40 0 22 5 40 10 40 6 0 10 18 10 39 0 22 4 43 10 46 5 3 10 16 10 28 1 56
13 127 21 127 5 0 9 18 9 40 0 22 4 40 8 40 8 0 26 95 38 203 3 26 10 47 15
47 5 0 9 27 9 60 0 33 4 60 9 60 5 0 13 36 17 80 3 44 11 83 15 86 5 3 9 30 9
60 0 30 5 54 10 54 6 0 10 30 10 70 0 39 4 70 9 70 4 0 11 48 15 108 4 59 11
109 16 110 6 2 10 37 10 77 0 41 5 77 10 80 6 3 10 37 10 76 0 38 4 69 8 69 5
0 14 102 21 228 15 285 20 345 32 357 5 5 10 122 11 260 1 153 4 223 8 180 4
-38 7 137 7 390 0 253 -3 433 -7 400 -4 -36 -7 33 -8 173 -1 128 -6 232 -11
232 -10 0 -16 61 -34 353 -6 109 -15 195 -19 191 -5 -4 -8 25 -8 64 0 41 -4
72 -10 72 -6 0 -10 29 -10 68 0 37 -4 72 -10 78 -5 5 -12 53 -16 107 -4 53
-11 97 -15 97 -5 0 -9 36 -9 80 0 47 -4 80 -10 80 -5 0 -10 15 -10 34 0 19 -4
37 -9 40 -5 3 -12 42 -16 86 -4 44 -11 80 -16 80 -5 0 -9 22 -9 48 0 26 -4 52
-9 58 -5 5 -11 27 -15 49 -15 113 -30 191 -36 195 -4 3 -10 21 -13 40 -7 46
-17 91 -24 110 -3 8 -7 24 -8 35 -11 74 -19 105 -26 105 -5 0 -9 16 -9 35 0
19 -4 35 -10 35 -5 0 -10 15 -10 34 0 19 -4 37 -8 40 -5 3 -7 19 -4 36 2 18 0
30 -7 30 -6 0 -11 16 -11 35 0 19 -4 35 -10 35 -5 0 -10 16 -10 35 0 19 -4 35
-9 35 -5 0 -12 32 -16 70 -4 39 -11 70 -16 70 -5 0 -9 9 -9 20 0 11 -4 20 -9
20 -9 0 -14 17 -33 123 -7 37 -16 67 -20 67 -4 0 -8 15 -8 33 0 21 -7 38 -20
47 -14 10 -21 31 -26 72 -4 32 -11 58 -15 58 -5 0 -9 11 -9 25 0 14 -4 25 -10
25 -5 0 -10 16 -10 35 0 19 -4 35 -10 35 -5 0 -13 18 -16 40 -4 22 -11 43 -15
46 -5 3 -9 16 -9 30 0 13 -4 24 -10 24 -5 0 -10 11 -10 25 0 14 -4 25 -9 25
-6 0 -13 20 -17 45 -3 25 -10 45 -15 45 -5 0 -9 11 -9 25 0 14 -4 25 -10 25
-5 0 -10 11 -10 25 0 14 -5 25 -10 25 -6 0 -10 6 -9 13 2 19 -12 57 -22 57 -5
0 -9 16 -9 35 0 19 -4 35 -10 35 -5 0 -10 9 -10 20 0 11 -5 20 -11 20 -5 0 -7
5 -4 10 7 12 -16 70 -27 70 -5 0 -8 9 -8 20 0 11 -4 20 -10 20 -5 0 -10 11
-10 25 0 14 -5 25 -11 25 -5 0 -8 4 -5 9 6 10 -16 61 -26 61 -5 0 -8 11 -8 25
0 14 -4 25 -9 25 -5 0 -12 16 -15 35 -4 19 -11 35 -16 35 -6 0 -10 10 -10 23
0 12 -9 29 -20 37 -11 8 -22 31 -26 57 -3 24 -10 43 -15 43 -5 0 -9 7 -9 15 0
8 -4 15 -10 15 -5 0 -10 9 -10 20 0 11 -4 20 -10 20 -5 0 -12 16 -16 35 -3 19
-10 35 -15 35 -5 0 -9 10 -9 21 0 12 -10 30 -22 40 -11 11 -18 19 -15 19 3 0
1 14 -4 30 -6 17 -15 30 -20 30 -5 0 -9 7 -9 15 0 8 -4 15 -10 15 -5 0 -10 11
-10 25 0 14 -4 25 -8 25 -5 0 -17 20 -28 45 -10 25 -22 45 -26 45 -4 0 -8 9
-8 20 0 11 -4 20 -10 20 -5 0 -7 7 -4 15 4 8 1 15 -5 15 -6 0 -11 7 -11 15 0
8 -9 20 -20 27 -11 7 -20 21 -20 30 0 10 -4 18 -10 18 -5 0 -7 7 -4 15 4 8 1
15 -5 15 -6 0 -11 9 -11 19 0 11 -9 23 -20 26 -11 3 -20 15 -20 26 0 10 -4 19
-10 19 -5 0 -7 7 -4 15 4 8 1 15 -5 15 -6 0 -11 9 -11 20 0 11 -4 20 -10 20
-5 0 -10 7 -10 15 0 8 -4 15 -8 15 -5 0 -17 20 -28 45 -10 25 -22 45 -26 45
-4 0 -8 6 -8 14 0 7 -7 19 -15 26 -8 7 -15 21 -15 31 0 11 -4 19 -10 19 -5 0
-10 6 -10 13 0 7 -9 19 -20 27 -11 8 -20 20 -20 26 0 6 -7 17 -15 24 -8 7 -15
21 -15 31 0 11 -4 19 -10 19 -5 0 -10 7 -10 15 0 8 -4 15 -9 15 -5 0 -13 10
-17 23 -4 12 -15 29 -25 38 -11 9 -19 23 -19 32 0 8 -7 17 -15 21 -8 3 -15 14
-15 23 0 10 -9 25 -20 33 -11 8 -20 20 -20 27 0 7 -4 13 -9 13 -5 0 -13 10
-17 23 -4 12 -15 29 -25 38 -11 9 -19 21 -19 26 0 6 -7 16 -15 23 -8 7 -15 21
-15 31 0 10 -8 20 -18 23 -10 4 -26 22 -35 41 -9 19 -21 35 -27 35 -5 0 -10 7
-10 16 0 8 -6 22 -12 29 -29 32 -38 45 -38 52 0 5 -9 15 -20 23 -11 8 -20 20
-20 27 0 7 -11 23 -25 37 -14 14 -25 30 -25 36 0 5 -4 10 -9 10 -5 0 -12 8
-15 18 -5 15 -19 34 -66 89 -5 7 -10 15 -10 18 0 3 -11 17 -25 31 -14 14 -25
28 -25 32 0 5 -18 28 -40 52 -58 64 -67 76 -80 99 -6 12 -23 34 -38 50 -15 15
-36 41 -47 56 -11 15 -32 42 -47 59 -15 17 -28 34 -28 38 0 3 -20 27 -45 51
-25 25 -45 48 -45 52 0 7 -18 30 -38 48 -7 7 -18 18 -25 25 -7 7 -22 24 -34
37 -13 13 -23 28 -23 32 0 5 -9 15 -19 23 -11 7 -18 17 -15 21 2 4 -4 10 -14
13 -9 3 -24 16 -32 27 -21 31 -92 108 -187 205 -46 46 -81 84 -79 84 4 0 -141
143 -330 327 -50 48 -104 99 -121 113 -18 13 -29 28 -27 32 3 4 -1 8 -8 8 -7
0 -25 11 -38 25 -67 68 -99 95 -110 95 -6 0 -8 5 -5 10 3 6 0 10 -7 10 -8 0
-30 17 -50 38 -46 47 -86 82 -92 82 -3 0 -23 17 -45 38 -51 47 -69 62 -76 62
-6 0 -15 8 -93 80 -24 22 -47 40 -51 40 -4 0 -25 16 -47 35 -56 50 -62 55 -70
55 -4 0 -14 8 -23 18 -9 10 -31 27 -48 37 -18 11 -33 23 -33 27 0 4 -5 8 -10
8 -10 0 -22 8 -55 38 -7 6 -18 12 -24 12 -6 0 -11 3 -11 8 0 4 -16 16 -35 26
-19 11 -35 23 -35 28 0 4 -7 8 -16 8 -8 0 -13 4 -10 9 3 5 -5 11 -17 15 -13 3
-37 18 -54 33 -31 29 -58 49 -83 60 -8 4 -22 14 -30 23 -8 10 -25 20 -37 24
-13 4 -23 12 -23 17 0 5 -6 9 -13 9 -7 0 -19 9 -27 20 -8 11 -20 20 -27 20 -7
0 -23 11 -37 25 -14 14 -30 25 -36 25 -13 0 -59 29 -80 50 -19 19 -50 39 -72
46 -10 4 -18 10 -18 15 0 5 -9 9 -20 9 -11 0 -20 4 -20 9 0 5 -10 13 -22 17
-13 4 -30 15 -39 25 -9 11 -21 19 -28 19 -6 0 -11 4 -11 8 0 5 -18 16 -40 26
-22 10 -40 22 -40 27 0 5 -7 9 -16 9 -8 0 -13 4 -10 9 4 5 -7 12 -24 16 -16 4
-30 11 -30 16 0 5 -7 9 -15 9 -8 0 -15 5 -15 10 0 6 -9 10 -20 10 -11 0 -20 4
-20 9 0 5 -11 12 -25 15 -14 4 -25 11 -25 16 0 6 -7 10 -15 10 -8 0 -15 5 -15
10 0 6 -7 10 -15 10 -8 0 -15 4 -15 9 0 5 -8 11 -17 15 -19 6 -55 27 -63 37
-3 3 -16 9 -30 12 -14 3 -35 15 -47 27 -12 11 -27 20 -33 20 -5 0 -10 4 -10 9
0 5 -16 12 -35 15 -19 4 -35 11 -35 16 0 6 -9 10 -20 10 -11 0 -20 5 -20 10 0
6 -7 10 -15 10 -8 0 -15 4 -15 8 0 5 -19 16 -42 26 -61 25 -92 40 -98 47 -9
10 -73 39 -87 39 -7 0 -13 5 -13 10 0 6 -9 10 -20 10 -11 0 -20 4 -20 8 0 5
-20 17 -45 28 -25 10 -45 22 -45 26 0 4 -11 8 -25 8 -14 0 -25 4 -25 9 0 5
-16 12 -35 15 -19 4 -35 11 -35 16 0 6 -7 10 -15 10 -8 0 -15 5 -15 10 0 6
-13 10 -30 10 -16 0 -30 5 -30 10 0 6 -4 10 -10 10 -17 0 -90 34 -90 42 0 5
-10 8 -22 8 -23 0 -131 49 -136 62 -2 4 -13 8 -24 8 -11 0 -34 6 -51 14 -18 8
-47 20 -64 27 -18 8 -33 17 -33 21 0 3 -18 9 -40 13 -22 4 -42 11 -46 16 -3 5
-16 9 -30 9 -13 0 -24 5 -24 10 0 6 -9 10 -20 10 -11 0 -20 4 -20 9 0 5 -18
11 -40 15 -22 3 -40 11 -40 16 0 6 -11 10 -24 10 -14 0 -28 5 -31 10 -3 6 -17
10 -31 10 -13 0 -24 4 -24 9 0 5 -18 12 -40 16 -22 4 -42 11 -46 16 -3 5 -16
9 -30 9 -13 0 -24 5 -24 10 0 6 -13 10 -30 10 -16 0 -30 4 -30 9 0 4 -19 11
-42 14 -24 3 -44 11 -46 16 -2 6 -17 11 -33 11 -16 0 -29 5 -29 10 0 6 -16 10
-35 10 -19 0 -35 4 -35 9 0 5 -25 13 -55 16 -30 4 -55 11 -55 16 0 5 -9 9 -20
9 -11 0 -20 4 -20 9 0 5 -29 12 -65 16 -36 3 -67 11 -70 16 -4 5 -17 9 -30 9
-13 0 -27 5 -30 10 -3 6 -17 10 -31 10 -13 0 -24 4 -24 9 0 5 -29 12 -65 16
-36 3 -67 11 -70 16 -4 5 -19 9 -36 9 -16 0 -29 5 -29 10 0 6 -13 10 -30 10
-16 0 -30 4 -30 9 0 5 -29 12 -65 16 -36 3 -67 11 -70 16 -4 5 -22 9 -41 9
-19 0 -34 5 -34 10 0 6 -18 10 -41 10 -22 0 -38 4 -35 9 3 5 -28 12 -69 16
-41 4 -77 11 -81 16 -3 5 -25 9 -50 9 -24 0 -44 5 -44 10 0 6 -18 10 -40 10
-22 0 -40 4 -40 9 0 5 -36 12 -80 16 -44 4 -83 11 -86 16 -3 5 -27 9 -55 9
-27 0 -49 5 -49 10 0 6 -26 10 -59 10 -33 0 -61 4 -63 10 -1 5 -49 13 -105 16
-57 4 -103 11 -103 16 0 4 -22 8 -50 8 -27 0 -50 4 -50 8 0 5 -66 14 -147 21
-233 18 -267 22 -278 32 -5 5 -64 9 -131 9 -81 0 -124 4 -126 11 -4 11 -1063
21 -1411 12z"/>
<path d="M18357 34543 c-4 -3 -19 -8 -34 -9 -104 -12 -305 -68 -413 -115 -58
-26 -86 -37 -100 -43 -8 -3 -28 -15 -45 -25 -16 -11 -37 -20 -46 -20 -16 -1
-62 -29 -198 -120 -30 -19 -59 -41 -65 -47 -6 -6 -17 -13 -23 -15 -15 -5 -168
-138 -225 -194 -73 -74 -208 -230 -208 -242 0 -6 -3 -13 -7 -15 -11 -4 -63
-85 -63 -96 0 -5 -9 -17 -20 -27 -11 -10 -34 -49 -51 -86 -18 -38 -36 -69 -40
-69 -5 0 -9 -6 -9 -14 0 -8 -16 -47 -35 -87 -19 -41 -35 -79 -35 -86 0 -7 -8
-27 -19 -46 -10 -18 -22 -57 -26 -85 -4 -29 -11 -54 -16 -58 -5 -3 -9 -13 -9
-22 0 -9 -6 -29 -14 -43 -7 -14 -19 -80 -26 -145 -7 -65 -17 -124 -22 -130 -4
-7 -11 -148 -13 -314 l-4 -302 -144 -147 c-78 -80 -206 -211 -284 -291 -78
-80 -197 -202 -265 -271 -67 -69 -196 -200 -285 -291 -89 -92 -171 -169 -182
-173 -13 -4 -38 3 -68 19 -27 13 -59 28 -72 32 -14 3 -46 19 -71 35 -26 16
-62 32 -81 36 -19 3 -44 13 -56 20 -12 8 -28 16 -35 17 -35 7 -74 20 -83 26
-11 8 -34 13 -135 31 -36 6 -90 17 -120 25 -82 22 -277 34 -440 27 -80 -3
-156 -5 -170 -5 -14 0 -47 -5 -75 -13 -27 -7 -59 -13 -70 -13 -11 0 -42 -6
-70 -14 -27 -8 -95 -27 -150 -42 -55 -15 -110 -34 -122 -42 -12 -8 -27 -14
-33 -14 -12 0 -36 -11 -205 -99 -66 -34 -131 -73 -145 -86 -14 -13 -45 -34
-69 -47 -87 -49 -388 -330 -447 -418 -13 -19 -37 -53 -53 -75 -28 -37 -102
-162 -159 -265 -48 -88 -126 -226 -154 -273 -15 -26 -28 -51 -28 -56 0 -5 -16
-32 -35 -61 -19 -29 -35 -58 -35 -66 0 -8 -20 -43 -45 -80 -25 -36 -45 -73
-45 -83 0 -10 -8 -25 -18 -35 -11 -9 -28 -34 -38 -56 -20 -41 -32 -47 -62 -31
-9 6 -53 17 -97 26 -44 9 -100 24 -125 32 -58 19 -152 40 -237 53 -200 31
-347 64 -379 85 -13 8 -28 15 -35 15 -6 0 -24 11 -41 25 -16 14 -38 25 -48 25
-9 0 -23 6 -29 13 -8 10 -64 15 -223 20 -117 4 -258 12 -313 18 -105 11 -457
-2 -600 -22 -38 -6 -144 -14 -235 -19 -91 -5 -203 -11 -250 -14 -118 -7 -351
-34 -435 -51 -92 -19 -186 -34 -260 -44 -33 -4 -80 -13 -105 -19 -25 -6 -72
-16 -105 -23 -33 -6 -109 -27 -170 -46 -60 -19 -146 -43 -190 -53 -44 -10
-118 -33 -165 -50 -47 -18 -146 -54 -220 -79 -74 -26 -149 -55 -165 -63 -17
-9 -55 -25 -85 -36 -83 -31 -199 -84 -255 -117 -27 -16 -77 -41 -110 -56 -33
-14 -85 -40 -115 -58 -30 -17 -94 -51 -141 -76 -47 -24 -99 -54 -115 -67 -16
-14 -48 -34 -70 -45 -23 -12 -68 -42 -100 -66 -33 -24 -92 -66 -133 -93 -41
-27 -87 -58 -101 -69 -15 -11 -54 -38 -86 -59 -33 -22 -76 -54 -96 -70 -21
-17 -73 -60 -117 -96 -45 -36 -115 -98 -158 -137 -42 -40 -81 -73 -85 -73 -4
0 -48 -39 -96 -87 -49 -49 -120 -118 -158 -155 -59 -57 -155 -162 -440 -477
-63 -70 -326 -407 -344 -441 -7 -14 -37 -54 -65 -90 -29 -36 -58 -76 -65 -89
-7 -13 -38 -58 -70 -100 -32 -42 -74 -107 -94 -144 -19 -37 -52 -91 -73 -120
-40 -55 -52 -74 -110 -181 -47 -86 -52 -93 -85 -137 -29 -37 -66 -104 -124
-224 -19 -38 -43 -86 -54 -105 -25 -46 -100 -200 -100 -206 0 -3 -19 -33 -43
-67 -24 -34 -54 -87 -66 -117 -13 -30 -33 -72 -46 -92 -14 -20 -27 -48 -31
-62 -3 -15 -10 -29 -15 -32 -5 -2 -14 -24 -20 -47 -6 -23 -34 -91 -61 -152
-28 -60 -63 -137 -78 -170 -63 -137 -70 -154 -70 -162 0 -5 -8 -24 -19 -43
-10 -19 -23 -58 -29 -86 -6 -29 -23 -78 -37 -109 -14 -32 -25 -63 -25 -70 0
-7 -14 -43 -31 -81 -17 -38 -42 -94 -56 -124 -14 -30 -31 -68 -38 -85 -15 -34
-46 -142 -65 -225 -12 -51 -20 -74 -79 -202 -12 -26 -35 -103 -52 -170 -16
-68 -39 -143 -50 -168 -41 -90 -47 -106 -64 -200 -10 -52 -29 -116 -42 -142
-13 -27 -30 -83 -39 -125 -24 -120 -30 -142 -63 -233 -17 -46 -31 -96 -31
-111 0 -28 -8 -36 -203 -192 -192 -153 -435 -383 -557 -527 -30 -36 -71 -81
-91 -100 -20 -19 -58 -66 -84 -105 -26 -38 -67 -92 -91 -120 -24 -29 -53 -72
-63 -96 -11 -24 -28 -53 -38 -64 -65 -72 -100 -129 -155 -251 -34 -77 -77
-157 -95 -180 -18 -23 -33 -50 -33 -61 0 -11 -8 -31 -19 -44 -10 -13 -22 -44
-26 -69 -4 -25 -31 -98 -60 -162 -35 -76 -63 -159 -80 -235 -15 -65 -33 -129
-40 -143 -7 -14 -18 -56 -24 -95 -7 -38 -14 -83 -17 -100 -8 -43 -25 -209 -30
-285 -5 -68 -5 -525 0 -595 6 -91 78 -453 103 -520 8 -22 23 -80 34 -129 21
-100 127 -385 171 -459 15 -26 28 -51 28 -55 0 -4 10 -25 21 -47 12 -22 28
-57 35 -77 13 -37 50 -102 139 -243 24 -38 60 -95 79 -127 19 -31 54 -81 78
-111 24 -29 69 -90 101 -135 33 -45 63 -82 67 -82 4 0 39 -37 78 -82 91 -107
151 -169 235 -243 38 -33 90 -78 115 -101 26 -22 72 -60 102 -83 30 -23 78
-60 105 -82 28 -22 82 -56 120 -75 39 -19 95 -52 125 -75 30 -22 79 -51 108
-66 28 -14 52 -28 52 -32 0 -3 -21 -33 -45 -65 -25 -33 -45 -63 -45 -68 0 -10
-86 -186 -121 -248 -33 -60 -109 -231 -109 -247 0 -8 -11 -39 -26 -70 -23 -50
-31 -80 -50 -178 -3 -16 -15 -50 -26 -75 -35 -75 -64 -214 -74 -350 -3 -52 -8
-108 -9 -125 -2 -16 -21 -66 -43 -110 -21 -44 -42 -93 -46 -110 -4 -16 -27
-75 -51 -130 -23 -55 -54 -147 -68 -205 -14 -58 -32 -130 -40 -160 -8 -30 -20
-89 -27 -130 -7 -41 -18 -88 -25 -105 -6 -16 -17 -59 -23 -95 -51 -300 -58
-510 -22 -651 23 -88 76 -231 100 -269 9 -14 25 -42 35 -64 39 -76 190 -213
295 -266 30 -15 73 -37 95 -48 105 -53 228 -91 346 -107 l46 -6 6 -87 c15
-196 85 -390 192 -528 68 -88 246 -240 318 -273 23 -10 103 -46 177 -80 114
-51 155 -64 260 -83 69 -12 163 -22 210 -22 l84 -1 8 -37 c11 -56 113 -260
150 -303 57 -65 161 -165 213 -205 28 -21 118 -68 200 -105 83 -37 174 -78
204 -92 53 -24 116 -39 196 -49 22 -2 63 -9 90 -14 37 -8 75 -6 145 5 83 13
114 19 179 36 9 3 29 -23 55 -72 71 -131 139 -205 306 -332 54 -42 411 -203
495 -225 42 -11 108 -15 220 -15 143 1 169 3 250 27 50 15 114 41 144 57 30
17 57 27 60 22 3 -4 23 -34 44 -65 21 -32 41 -58 45 -58 4 0 46 -34 92 -76 82
-74 98 -83 290 -171 160 -74 209 -92 275 -102 39 -6 99 -16 135 -21 125 -20
237 -3 415 61 101 37 229 108 261 146 l21 24 38 -25 c21 -14 42 -26 47 -26 5
0 21 -8 36 -18 126 -85 151 -98 231 -119 47 -12 104 -29 126 -37 22 -8 53 -15
68 -16 15 0 30 -7 33 -15 8 -20 63 -19 86 1 16 16 18 16 24 0 8 -20 57 -21 74
-1 8 9 30 15 57 15 50 0 228 63 285 101 91 62 186 131 220 161 71 63 200 213
224 259 13 26 29 53 36 60 41 44 89 111 111 156 13 29 40 71 60 95 45 56 66
90 132 223 31 61 66 128 80 150 49 82 73 131 80 165 11 54 39 101 85 145 63
60 127 146 159 215 16 33 46 84 68 113 69 91 101 149 183 333 45 98 89 190 98
204 25 38 59 113 67 148 3 18 19 58 34 89 16 32 48 103 71 158 24 55 46 103
50 108 3 4 25 -2 48 -13 22 -11 48 -20 56 -20 8 0 25 -4 38 -9 13 -5 50 -17
83 -26 33 -9 103 -29 155 -45 52 -16 113 -32 135 -36 22 -3 74 -15 115 -26 41
-11 102 -21 135 -23 33 -2 95 -8 138 -14 68 -9 301 -24 377 -24 131 -1 403 22
520 43 30 5 111 19 180 30 167 28 215 39 415 100 180 55 300 98 362 129 21 10
76 36 123 56 128 55 211 95 250 120 19 12 70 41 113 63 43 23 97 57 120 75 23
19 56 42 73 53 54 33 119 77 124 84 3 3 32 25 65 49 109 77 378 336 473 456
31 39 59 72 62 75 15 12 110 142 110 150 0 6 29 47 64 92 35 46 77 115 95 153
17 39 38 81 47 95 25 41 120 242 134 285 17 52 47 127 76 190 25 54 41 107 54
170 4 22 17 87 28 145 64 321 84 508 84 775 -1 264 -14 422 -57 655 -30 163
-30 176 3 217 16 21 39 57 50 79 12 23 48 77 80 120 33 44 69 97 81 119 12 22
44 69 71 105 28 36 61 88 74 116 27 56 74 129 123 190 18 22 49 74 68 115 20
41 69 126 111 189 41 63 83 133 94 155 27 54 62 115 102 177 18 28 43 68 56
87 13 20 39 70 58 111 76 160 95 198 135 270 81 146 118 216 150 280 45 92 99
211 99 216 0 3 11 20 25 38 14 18 25 36 25 39 0 4 14 37 31 74 17 38 38 84 46
103 8 19 23 51 33 70 9 19 20 49 23 65 3 17 35 93 70 170 35 77 67 151 70 165
12 52 105 308 140 382 34 72 43 100 68 203 6 22 15 54 20 71 5 17 9 36 9 42 0
7 11 36 25 65 28 56 75 218 75 254 0 12 11 46 23 76 13 29 29 84 36 122 7 39
21 97 31 130 11 33 24 93 30 133 6 41 17 86 24 100 7 15 19 59 25 97 35 205
42 247 56 323 8 46 13 87 10 91 -2 5 0 23 6 42 26 89 60 573 62 874 1 221 -12
502 -33 690 -23 206 -38 294 -87 525 -19 91 -39 185 -44 210 -5 25 -19 77 -30
115 -52 168 -58 192 -65 230 -13 77 -186 521 -265 683 -44 90 -84 174 -89 187
-5 13 -28 57 -51 97 -23 40 -67 118 -96 173 -30 55 -79 136 -108 180 -29 44
-87 132 -129 195 -121 185 -267 386 -326 450 -19 21 -54 60 -77 87 -23 26 -64
73 -91 103 -26 30 -62 70 -78 88 -22 25 -248 260 -301 315 -38 38 -133 125
-201 184 -45 39 -91 82 -102 96 -11 14 -49 46 -85 72 -36 25 -65 50 -65 55 0
5 16 36 35 69 19 32 35 66 35 74 0 9 11 28 24 44 13 16 34 49 46 73 12 25 26
52 31 60 5 8 24 41 44 73 19 32 35 63 35 68 0 6 11 25 25 43 13 18 34 54 46
81 12 27 35 67 50 88 16 22 29 46 29 53 0 8 9 28 20 46 11 18 20 45 20 60 0
15 5 30 10 33 6 3 10 15 10 26 0 19 2 25 32 84 8 17 27 82 43 145 15 63 32
125 38 137 5 11 7 25 4 30 -3 5 1 35 9 68 19 79 28 424 13 525 -6 41 -12 94
-14 117 -1 22 -6 47 -10 53 -4 7 -11 40 -15 74 -10 75 -37 176 -54 196 -7 8
-19 38 -26 65 -7 28 -19 57 -27 66 -7 8 -13 22 -13 29 0 25 -81 191 -110 225
-9 11 -30 45 -46 75 -16 30 -39 66 -51 79 -21 22 -22 25 -7 60 9 20 18 41 21
48 3 7 13 15 23 18 10 3 33 26 52 50 18 25 41 47 51 50 9 4 17 11 17 16 0 5
50 60 111 122 l110 112 141 -137 c78 -76 146 -138 153 -138 6 0 20 -10 31 -21
10 -12 44 -40 74 -62 30 -22 57 -43 60 -46 18 -21 324 -176 400 -203 63 -23
148 -49 170 -53 35 -6 76 -18 87 -27 6 -5 54 -17 105 -25 83 -15 269 -16 1658
-16 1342 0 1584 2 1696 15 71 8 139 20 150 26 10 6 55 22 99 36 155 48 225 75
254 95 16 12 34 21 40 21 13 0 229 117 241 131 3 3 21 15 40 26 20 12 46 33
59 47 14 14 29 26 35 26 6 0 50 35 97 78 47 42 95 84 105 92 10 9 26 27 35 40
l17 25 73 -76 c41 -42 79 -83 85 -90 7 -8 40 -41 75 -74 91 -85 112 -132 77
-167 -11 -11 -31 -42 -44 -68 -14 -27 -36 -62 -49 -78 -13 -16 -29 -40 -35
-53 -5 -13 -14 -31 -19 -39 -20 -32 -51 -101 -51 -113 0 -7 -8 -28 -18 -47
-10 -19 -24 -55 -32 -80 -7 -25 -19 -52 -25 -60 -16 -20 -55 -161 -55 -197 0
-15 -5 -44 -11 -63 -6 -19 -12 -53 -15 -75 -2 -22 -7 -62 -10 -90 -4 -27 -7
-138 -7 -245 0 -157 4 -219 22 -315 32 -178 70 -315 116 -420 22 -49 28 -69
26 -84 -2 -12 15 -53 58 -136 8 -16 23 -39 33 -49 10 -11 18 -27 18 -35 0 -9
16 -41 35 -71 19 -30 44 -74 55 -98 11 -24 36 -67 55 -96 19 -29 35 -58 35
-65 0 -15 43 -83 64 -100 9 -7 16 -22 16 -32 0 -11 11 -37 25 -59 14 -22 25
-43 25 -48 0 -4 14 -22 30 -40 17 -18 30 -43 30 -54 0 -22 -55 -79 -225 -233
-154 -140 -382 -375 -525 -540 -57 -66 -141 -157 -187 -203 -61 -59 -96 -104
-125 -160 -22 -42 -62 -106 -87 -141 -85 -117 -213 -315 -280 -430 -114 -199
-191 -338 -191 -345 0 -4 -36 -80 -80 -167 -43 -88 -86 -178 -94 -202 -8 -23
-48 -131 -90 -240 -41 -109 -80 -226 -86 -259 -6 -34 -17 -77 -24 -97 -27 -73
-65 -208 -76 -266 -6 -33 -18 -85 -25 -115 -51 -207 -109 -592 -119 -790 -5
-83 -20 -465 -20 -485 1 -11 4 -85 8 -165 3 -80 8 -190 11 -245 2 -55 9 -145
16 -200 6 -55 12 -122 14 -148 1 -27 7 -74 13 -105 6 -31 16 -97 22 -147 7
-49 19 -124 27 -165 8 -41 16 -88 18 -105 4 -48 23 -127 38 -165 8 -19 18 -62
22 -95 4 -33 15 -85 25 -115 10 -30 25 -95 34 -144 9 -48 25 -105 35 -125 10
-20 22 -56 25 -81 10 -66 34 -146 66 -225 16 -38 41 -119 56 -180 15 -60 52
-166 82 -235 30 -69 59 -138 63 -155 20 -77 101 -292 152 -407 31 -70 57 -135
57 -144 0 -9 11 -37 24 -63 13 -25 33 -66 44 -91 10 -25 32 -74 48 -110 15
-36 36 -76 46 -90 10 -14 45 -86 78 -160 33 -74 67 -141 74 -150 8 -8 28 -44
45 -80 38 -79 90 -176 113 -210 9 -14 40 -76 68 -139 28 -63 71 -145 95 -183
25 -37 45 -71 45 -74 0 -4 7 -15 15 -24 16 -17 35 -52 92 -161 32 -60 88 -149
135 -214 15 -22 46 -76 67 -120 21 -44 49 -93 63 -110 45 -54 99 -136 117
-179 10 -23 47 -82 83 -131 36 -50 73 -106 83 -125 10 -19 46 -72 81 -119 35
-46 64 -88 64 -94 0 -5 21 -38 46 -73 41 -59 45 -67 36 -97 -5 -17 -10 -45
-11 -62 0 -16 -5 -50 -10 -75 -27 -129 -42 -237 -49 -345 -9 -153 -9 -511 1
-590 4 -33 11 -105 17 -160 6 -55 15 -120 20 -145 6 -25 15 -72 20 -105 9 -54
47 -233 69 -325 5 -19 29 -79 55 -133 25 -54 46 -104 46 -112 0 -21 96 -233
125 -275 13 -19 38 -69 55 -111 17 -42 58 -111 91 -155 33 -43 69 -95 79 -114
11 -19 36 -56 57 -82 21 -25 65 -79 97 -120 77 -95 295 -311 421 -416 113 -94
330 -247 438 -308 39 -22 99 -56 132 -75 33 -19 89 -47 125 -63 99 -44 190
-85 245 -111 57 -27 148 -60 280 -100 50 -16 123 -38 163 -51 106 -34 134 -41
267 -65 284 -50 578 -82 755 -82 79 0 307 14 380 24 47 6 108 12 135 14 28 2
70 8 95 14 25 6 77 17 115 25 102 22 181 43 205 56 12 6 42 15 68 20 67 12
190 48 240 71 l42 19 31 -68 c78 -168 129 -285 129 -297 0 -16 38 -98 67 -145
11 -19 40 -78 63 -130 99 -221 159 -334 216 -406 17 -21 48 -73 69 -114 37
-73 82 -134 175 -235 43 -47 59 -78 74 -145 3 -14 29 -64 57 -110 28 -47 74
-130 101 -185 70 -144 76 -153 129 -222 26 -34 55 -77 63 -97 8 -19 34 -60 58
-91 54 -71 77 -103 108 -156 14 -23 45 -62 70 -88 25 -25 57 -61 72 -79 15
-18 46 -48 68 -65 126 -97 201 -149 250 -175 80 -43 202 -82 253 -82 27 0 49
-6 57 -15 16 -19 54 -19 70 0 12 14 15 14 30 0 21 -19 64 -19 80 0 7 8 21 15
31 15 10 0 58 13 107 29 49 16 109 32 133 36 26 4 60 20 84 39 22 17 51 37 65
44 14 7 54 30 90 51 l65 39 31 -28 c81 -71 251 -149 412 -189 89 -22 160 -25
255 -11 232 35 203 26 385 111 46 22 86 39 88 39 16 0 128 60 164 89 95 74
185 163 222 219 l28 42 57 -29 c136 -69 241 -90 423 -86 149 3 225 20 345 75
96 44 131 60 236 108 67 30 161 93 189 126 8 10 40 38 72 63 32 24 58 49 58
56 0 6 11 22 24 36 14 15 43 63 65 107 l40 81 68 -17 c118 -31 225 -43 269
-31 21 6 62 12 89 15 28 3 74 10 103 16 70 16 450 189 504 231 43 33 125 108
156 143 9 11 31 36 49 56 41 47 138 236 153 300 l12 50 61 -5 c56 -3 120 4
299 36 90 16 394 156 473 219 88 68 218 199 251 252 52 82 102 195 123 278 25
102 43 234 35 264 -5 21 0 23 101 40 66 11 128 28 168 46 34 17 71 30 83 30
12 0 36 11 55 24 19 14 58 36 87 50 69 33 120 73 207 160 55 55 81 92 118 166
97 198 135 369 123 550 -4 52 -8 113 -10 135 -4 60 -25 192 -42 265 -8 36 -25
115 -38 175 -13 61 -31 135 -39 165 -9 30 -26 98 -38 150 -12 52 -39 131 -60
176 -20 44 -43 101 -49 125 -7 24 -30 80 -51 124 -21 43 -39 91 -39 105 1 112
-44 377 -75 450 -13 30 -31 89 -40 130 -9 41 -27 100 -40 130 -12 30 -25 67
-29 82 -7 31 -74 182 -108 243 -48 88 -118 231 -118 242 0 6 -15 31 -34 56
-33 43 -56 80 -56 90 0 3 34 24 77 47 42 22 90 52 106 66 17 14 64 43 106 64
42 21 102 60 133 86 31 27 81 67 112 89 30 22 55 43 56 46 0 4 24 25 53 47 64
49 264 244 299 292 14 19 56 66 92 103 37 37 82 91 101 120 53 79 68 99 95
130 14 16 38 52 53 80 16 29 35 59 42 67 7 8 25 38 40 65 15 28 35 59 45 70
22 26 90 150 90 164 0 6 25 62 56 124 31 61 69 146 85 187 16 41 34 84 38 95
29 64 63 170 75 235 9 42 22 93 31 113 26 62 100 445 105 547 2 19 3 51 4 70
1 19 3 83 4 142 2 80 5 107 15 105 7 -1 13 11 15 31 2 24 -1 32 -12 32 -13 0
-16 14 -18 68 -4 143 -6 180 -16 267 -16 133 -49 315 -65 355 -8 19 -24 80
-37 135 -21 92 -47 164 -106 288 -13 27 -26 70 -30 95 -3 26 -14 56 -24 67 -9
11 -20 35 -23 53 -4 18 -20 49 -36 70 -17 20 -47 73 -67 117 -20 44 -49 107
-64 140 -15 33 -51 87 -78 120 -28 33 -62 83 -75 110 -14 28 -47 77 -73 110
-27 33 -62 80 -79 105 -16 24 -50 66 -75 92 -25 26 -74 82 -110 125 -36 42
-98 109 -138 147 -41 39 -113 109 -161 156 -48 47 -116 108 -152 135 -35 28
-71 57 -81 65 -9 8 -23 20 -30 25 -8 6 -41 33 -73 61 -33 28 -72 58 -87 68
-19 12 -28 29 -33 59 -4 23 -18 74 -32 112 -14 39 -37 122 -52 185 -15 63 -39
144 -53 180 -15 36 -35 108 -46 160 -11 52 -34 124 -50 160 -16 36 -35 90 -42
120 -7 30 -18 76 -26 102 -8 26 -14 52 -14 58 0 7 -18 51 -41 99 -35 74 -54
132 -109 341 -5 19 -23 63 -40 98 -16 34 -30 64 -30 67 0 2 -18 43 -40 90 -22
47 -40 93 -40 100 0 8 -11 39 -24 69 -13 29 -27 73 -31 97 -4 24 -16 60 -25
79 -43 82 -230 513 -230 528 0 10 -9 31 -20 47 -11 17 -20 37 -20 46 0 8 -11
29 -23 47 -13 17 -36 62 -52 99 -15 38 -45 91 -65 118 -21 28 -54 88 -74 134
-20 47 -46 96 -56 111 -10 14 -34 61 -52 103 -43 95 -88 176 -155 275 -29 42
-66 104 -82 137 -34 67 -35 68 -111 179 -30 44 -65 102 -77 128 -12 26 -50 86
-85 132 -35 47 -90 122 -123 166 -33 45 -67 94 -75 109 -20 39 -306 400 -326
413 -7 4 -41 45 -77 90 -36 46 -74 90 -84 99 -10 9 -58 61 -108 115 -157 170
-442 449 -494 482 -14 9 -46 37 -71 62 -25 25 -61 57 -80 72 -65 50 -135 108
-160 132 -14 13 -45 36 -70 50 -25 15 -72 47 -105 71 -33 24 -80 56 -105 71
-25 15 -54 35 -65 45 -33 30 -87 66 -155 105 -36 21 -78 48 -95 60 -16 12 -64
40 -105 62 -41 21 -97 53 -125 69 -27 16 -70 38 -95 49 -25 10 -67 31 -95 46
-75 41 -259 128 -270 128 -3 0 -43 16 -88 36 -109 48 -117 51 -151 59 -16 3
-103 35 -195 69 -91 35 -202 72 -246 81 -44 10 -125 32 -180 50 -55 18 -131
38 -170 45 -38 7 -83 17 -100 22 -16 6 -59 14 -95 18 -67 8 -145 21 -265 45
-38 8 -115 19 -170 25 -55 5 -138 14 -184 20 -46 5 -87 7 -92 4 -4 -2 -39 1
-76 7 -90 15 -698 20 -838 7 -60 -5 -119 -10 -130 -10 -36 -1 -358 -29 -435
-38 -41 -5 -131 -20 -200 -34 -69 -14 -156 -28 -195 -31 -38 -4 -104 -13 -145
-22 -41 -8 -125 -23 -186 -33 -61 -10 -121 -23 -133 -30 -21 -11 -90 -28 -206
-52 -27 -5 -58 -14 -68 -19 -10 -6 -49 -16 -87 -23 -76 -15 -82 -12 -94 36 -3
15 -20 43 -36 62 -17 18 -30 42 -30 52 -1 11 -14 37 -30 59 -16 22 -45 72 -63
110 -19 39 -41 76 -50 84 -10 7 -17 20 -17 29 0 8 -13 37 -30 64 -16 26 -30
50 -30 53 0 2 -13 26 -29 53 -16 27 -44 76 -62 108 -37 69 -129 231 -144 256
-31 51 -118 164 -184 237 -92 102 -314 299 -358 317 -18 8 -47 27 -66 43 -18
17 -72 50 -120 75 -106 55 -128 68 -147 82 -8 6 -33 17 -55 24 -22 6 -58 20
-80 30 -22 10 -85 31 -140 46 -55 14 -116 31 -135 36 -19 5 -44 10 -55 10 -11
0 -42 6 -70 13 -27 8 -61 13 -75 13 -14 0 -90 2 -170 5 -164 7 -360 -6 -437
-28 -28 -8 -63 -15 -78 -15 -27 0 -144 -26 -180 -41 -31 -12 -70 -22 -70 -18
-1 2 -13 -4 -29 -14 -15 -10 -51 -25 -78 -34 -28 -8 -67 -25 -87 -37 -20 -13
-47 -26 -61 -31 -14 -4 -46 -18 -71 -32 -30 -16 -54 -23 -67 -18 -12 3 -75 61
-141 128 -573 586 -856 878 -880 908 -20 26 -20 29 -6 160 12 110 12 172 3
344 -6 116 -14 215 -18 220 -5 6 -11 53 -15 105 -4 52 -10 99 -13 104 -3 5 -6
21 -7 35 -2 14 -10 51 -20 81 -9 30 -21 73 -27 95 -5 22 -14 49 -19 60 -14 33
-39 109 -39 122 0 7 -13 34 -30 60 -16 26 -30 52 -30 59 0 13 -43 88 -92 162
-15 23 -28 48 -28 56 0 7 -11 23 -25 36 -14 13 -25 29 -25 37 0 7 -3 13 -8 13
-4 0 -12 8 -17 19 -10 19 -87 118 -104 135 -13 12 -39 39 -82 84 -21 22 -49
48 -63 57 -14 10 -26 23 -26 30 0 7 -12 21 -26 31 -15 10 -45 33 -68 51 -61
48 -284 195 -342 226 -29 15 -59 27 -68 27 -9 0 -16 3 -16 8 0 8 -73 42 -90
42 -5 0 -29 9 -52 19 -51 23 -206 74 -230 76 -10 1 -21 4 -24 8 -4 4 -22 7
-40 7 -18 0 -36 5 -39 10 -4 6 -18 11 -33 12 -104 5 -3310 7 -3315 1z m3066
-1123 c49 -5 94 -13 100 -17 7 -5 39 -17 72 -28 33 -11 79 -29 102 -42 23 -13
47 -23 54 -23 13 0 74 -43 145 -102 48 -40 154 -152 154 -162 0 -3 -24 -4 -52
-2 -57 3 -196 -17 -227 -34 -11 -5 -28 -10 -38 -10 -10 0 -34 -9 -53 -20 -19
-10 -55 -30 -79 -42 -106 -55 -276 -240 -297 -322 -3 -14 -10 -26 -14 -26 -4
0 -18 -35 -30 -77 -37 -131 -35 -343 5 -438 7 -16 16 -41 20 -55 14 -48 95
-188 137 -236 24 -27 120 -127 214 -224 94 -96 221 -227 282 -290 l112 -115
-52 -52 c-29 -29 -56 -53 -60 -53 -4 0 -35 -22 -68 -48 -55 -45 -112 -78 -200
-115 -19 -9 -38 -15 -41 -14 -3 1 -13 -4 -21 -10 -8 -7 -71 -18 -139 -24 -68
-6 -140 -15 -159 -20 -22 -6 -516 -8 -1315 -6 -1409 4 -1506 8 -1616 59 -30
14 -76 36 -104 48 -62 27 -133 85 -248 198 -118 117 -120 109 59 297 76 81
182 191 234 245 139 142 152 157 200 245 46 83 75 151 92 220 16 64 18 293 2
340 -8 22 -14 47 -14 55 0 19 -65 148 -85 171 -8 8 -15 19 -15 23 0 33 -166
185 -252 231 -29 15 -64 34 -78 41 -14 8 -31 14 -39 14 -7 0 -34 7 -60 15 -25
8 -65 18 -89 22 l-43 8 83 86 c117 122 234 197 373 239 22 7 60 20 85 29 25 8
72 18 105 22 98 10 2761 10 2858 -1z m-6959 -3395 c44 -3 86 -11 93 -17 15
-12 9 -46 -19 -100 -10 -21 -16 -38 -13 -38 4 0 -3 -13 -15 -30 -48 -68 -55
-295 -12 -445 18 -66 33 -100 86 -203 26 -49 147 -177 189 -199 16 -8 48 -29
72 -47 24 -19 60 -37 81 -41 21 -3 54 -15 73 -25 90 -46 321 -46 468 0 108 34
260 130 304 191 11 16 29 34 40 40 22 11 59 3 59 -14 0 -6 9 -29 20 -52 11
-23 23 -68 26 -101 3 -32 7 -75 10 -94 10 -84 9 -167 -3 -214 -7 -28 -11 -56
-9 -63 3 -7 -6 -45 -19 -84 -14 -40 -25 -83 -25 -95 0 -19 -207 -403 -231
-428 -5 -6 -9 -18 -9 -27 0 -9 -6 -22 -14 -28 -8 -7 -27 -36 -41 -64 -15 -29
-30 -55 -34 -59 -10 -11 -167 68 -231 116 -71 54 -142 96 -210 127 -75 33
-118 57 -186 104 -83 57 -173 105 -414 218 -30 15 -82 42 -115 62 -69 41 -228
118 -420 203 -49 22 -124 55 -165 75 -120 55 -193 85 -224 92 -16 3 -45 17
-65 31 -19 13 -41 24 -48 24 -7 0 -41 11 -75 24 -35 13 -91 35 -125 47 -62 23
-73 32 -53 44 6 3 10 15 10 25 0 10 11 31 25 46 14 15 25 30 25 34 0 5 32 63
70 129 39 67 70 123 70 126 0 2 20 38 45 79 25 42 45 81 45 87 0 14 41 92 54
104 7 5 28 35 49 65 54 80 143 171 212 215 78 51 181 105 199 105 7 0 19 7 26
15 7 8 27 15 44 15 17 1 58 8 92 18 62 17 137 19 288 7z m11210 -9 c30 -9 65
-16 79 -16 14 0 38 -7 54 -15 15 -9 39 -20 53 -25 14 -6 34 -16 45 -22 75 -49
144 -88 152 -88 13 0 130 -130 191 -211 51 -69 73 -107 116 -199 14 -30 36
-73 48 -95 13 -22 61 -106 107 -187 46 -82 87 -148 92 -148 5 0 9 -8 9 -17 0
-10 9 -33 20 -51 22 -36 25 -52 9 -52 -5 0 -29 -9 -52 -19 -24 -11 -56 -23
-72 -27 -16 -4 -44 -18 -63 -30 -19 -13 -50 -26 -69 -30 -19 -4 -61 -19 -94
-35 -33 -16 -61 -29 -64 -29 -2 0 -43 -18 -92 -41 -48 -23 -153 -70 -233 -106
-221 -99 -286 -132 -360 -183 -14 -9 -70 -37 -125 -61 -55 -24 -125 -56 -155
-72 -30 -16 -73 -39 -95 -50 -22 -12 -76 -45 -119 -75 -44 -30 -116 -71 -161
-91 -44 -20 -94 -46 -112 -58 -17 -13 -35 -23 -39 -23 -4 0 -39 -24 -78 -53
-39 -29 -91 -62 -116 -72 -25 -10 -76 -41 -113 -67 -38 -27 -74 -51 -81 -54
-8 -3 -25 18 -44 53 -18 32 -43 76 -57 98 -13 22 -33 58 -44 80 -11 22 -34 65
-51 95 -155 270 -188 331 -188 351 0 13 -9 51 -20 84 -36 109 -50 248 -37 370
2 22 6 61 8 86 9 91 51 189 81 189 11 0 49 -30 86 -66 132 -133 270 -190 500
-210 72 -6 204 13 255 36 22 10 54 22 70 25 83 20 307 207 349 292 10 21 26
54 36 73 24 47 62 185 67 240 11 134 -2 265 -33 329 -9 20 -25 52 -34 71 -26
53 -32 86 -17 99 16 12 180 27 275 24 34 -1 87 -9 116 -17z m-15374 -1370 c52
-3 131 -8 175 -10 137 -8 297 -25 380 -40 44 -8 118 -18 165 -21 47 -4 108
-13 135 -20 28 -8 70 -17 95 -19 67 -7 221 -36 255 -47 58 -20 140 -38 173
-39 18 0 45 -6 60 -14 15 -8 76 -23 136 -35 60 -12 127 -31 150 -43 22 -12 89
-31 147 -44 59 -12 142 -38 185 -56 44 -19 108 -42 144 -52 36 -9 85 -24 110
-32 25 -8 61 -19 80 -24 19 -5 53 -18 75 -28 105 -51 275 -122 289 -122 9 0
24 -4 34 -10 61 -35 225 -103 266 -111 63 -12 231 -84 276 -119 19 -14 49 -34
65 -43 36 -20 245 -117 252 -117 3 0 18 -9 33 -20 16 -11 102 -53 192 -94 140
-63 204 -98 323 -179 54 -37 87 -55 173 -94 51 -24 129 -70 172 -103 44 -34
109 -74 145 -90 35 -16 92 -52 126 -80 33 -28 84 -62 112 -76 54 -28 184 -121
279 -201 32 -26 72 -56 90 -65 17 -10 45 -30 62 -46 17 -15 57 -47 89 -71 32
-24 89 -71 125 -105 37 -35 94 -82 126 -106 33 -24 126 -109 207 -189 81 -80
158 -155 171 -167 31 -27 166 -176 217 -239 22 -27 56 -66 74 -85 50 -51 147
-169 187 -229 49 -71 103 -144 116 -156 19 -17 106 -148 136 -205 17 -30 38
-64 47 -75 10 -11 33 -47 51 -80 62 -114 88 -160 124 -219 20 -33 36 -64 36
-69 0 -5 24 -60 54 -121 138 -284 158 -336 230 -591 8 -27 31 -100 50 -161 20
-61 36 -124 36 -140 0 -16 9 -65 21 -109 30 -121 40 -172 49 -260 5 -44 15
-120 24 -170 8 -49 18 -139 21 -200 7 -155 19 -476 17 -500 0 -11 -3 -76 -7
-145 -6 -146 -13 -255 -20 -325 -2 -27 -7 -81 -9 -119 -3 -38 -9 -89 -15 -115
-5 -25 -12 -77 -15 -116 -4 -38 -17 -122 -31 -185 -62 -293 -83 -387 -92 -410
-6 -14 -13 -47 -17 -75 -8 -53 -18 -89 -47 -170 -10 -27 -21 -72 -25 -100 -3
-27 -19 -81 -35 -119 -16 -37 -29 -75 -29 -83 0 -7 -6 -26 -14 -41 -8 -15 -22
-64 -31 -107 -15 -75 -60 -191 -105 -277 -11 -20 -20 -46 -20 -57 0 -11 -16
-52 -35 -92 -19 -41 -35 -86 -35 -101 0 -15 -27 -90 -61 -165 -33 -76 -65
-154 -71 -173 -5 -19 -21 -60 -35 -90 -14 -30 -43 -95 -65 -145 -22 -49 -46
-97 -54 -105 -12 -14 -63 -120 -98 -203 -9 -21 -29 -56 -46 -77 -17 -21 -44
-69 -61 -107 -17 -37 -37 -75 -44 -83 -7 -8 -32 -59 -56 -113 -24 -54 -45 -94
-47 -89 -5 15 25 117 53 178 30 65 66 177 86 269 7 33 27 92 45 130 56 125
130 317 139 365 4 19 24 77 46 127 21 51 39 99 39 107 0 8 18 52 39 98 22 45
68 148 104 228 36 80 83 185 106 234 89 190 102 288 51 390 -29 57 -110 128
-185 161 -27 13 -81 37 -120 55 -116 53 -128 58 -177 69 -90 21 -163 10 -243
-37 -69 -41 -110 -105 -205 -317 -5 -11 -14 -38 -21 -60 -7 -22 -33 -87 -59
-145 -45 -100 -59 -130 -136 -299 -19 -41 -34 -80 -34 -89 0 -8 -17 -53 -39
-101 -21 -47 -42 -101 -46 -119 -3 -18 -13 -45 -21 -61 -8 -15 -18 -50 -23
-77 -5 -27 -28 -89 -51 -139 -51 -109 -81 -193 -124 -345 -18 -63 -45 -139
-59 -169 -15 -30 -27 -63 -27 -74 0 -10 -5 -27 -10 -37 -6 -10 -16 -52 -24
-92 -8 -40 -24 -95 -35 -122 -12 -27 -29 -90 -37 -140 -9 -50 -22 -103 -31
-119 -8 -16 -25 -77 -38 -135 -56 -252 -64 -291 -79 -372 -8 -47 -18 -106 -22
-133 -8 -63 -20 -67 -27 -9 -12 99 -76 350 -105 417 -17 37 -32 91 -32 113 0
12 -12 52 -26 89 -14 38 -33 86 -41 108 -8 22 -20 49 -26 60 -6 11 -36 72 -68
135 -66 136 -187 338 -254 427 -39 51 -236 244 -307 300 -31 24 -83 58 -115
74 -32 16 -76 40 -99 52 -63 35 -135 65 -184 77 -25 6 -55 18 -68 26 -13 9
-96 29 -185 45 -126 23 -207 32 -367 38 -113 4 -230 6 -260 5 -152 -6 -395
-16 -475 -20 -49 -3 -322 -7 -605 -9 -511 -5 -712 -9 -843 -18 -229 -16 -516
-115 -610 -211 -115 -116 -194 -243 -235 -376 -42 -133 -73 -414 -80 -710 -1
-55 -13 -526 -14 -535 -2 -46 19 -532 27 -630 4 -38 8 -92 9 -120 2 -27 11
-79 20 -113 9 -35 14 -68 11 -72 -3 -5 2 -37 11 -72 9 -35 20 -88 24 -118 5
-30 15 -77 24 -105 8 -27 23 -79 32 -115 9 -36 30 -100 46 -143 15 -43 28 -86
28 -95 0 -10 16 -46 36 -82 19 -36 56 -108 81 -160 41 -84 122 -214 201 -322
26 -35 149 -152 257 -243 59 -49 151 -109 186 -120 13 -4 43 -21 66 -36 23
-16 48 -29 55 -29 7 0 22 -6 33 -14 11 -7 34 -16 50 -20 17 -4 59 -21 95 -37
72 -34 203 -68 360 -94 153 -26 508 -31 665 -10 66 9 123 19 128 22 4 2 41 6
81 8 41 1 103 12 138 23 35 10 99 27 143 37 66 14 185 51 365 115 77 27 276
113 299 129 14 10 37 22 50 26 53 16 473 281 531 334 15 14 52 44 81 66 29 22
69 57 88 78 20 20 41 37 48 37 6 0 27 19 46 42 20 24 76 85 125 137 49 51 100
111 113 133 13 22 45 68 70 101 51 69 129 186 129 193 0 3 14 35 31 72 17 37
43 92 56 122 14 30 37 79 50 109 14 30 31 76 39 102 8 27 18 49 22 49 4 0 8
-63 10 -139 2 -155 33 -410 55 -463 8 -19 22 -73 32 -119 9 -46 20 -102 25
-124 10 -43 47 -362 48 -405 2 -113 1 -293 -2 -330 -8 -116 -32 -305 -46 -360
-5 -19 -14 -62 -20 -94 -7 -33 -21 -80 -32 -105 -11 -25 -28 -77 -39 -116 -10
-38 -27 -88 -38 -110 -10 -22 -31 -67 -45 -99 -14 -32 -42 -81 -61 -108 -20
-27 -46 -72 -59 -101 -29 -66 -134 -201 -241 -312 -22 -23 -61 -64 -87 -91
-63 -66 -210 -193 -261 -226 -60 -39 -104 -70 -135 -94 -15 -11 -56 -36 -92
-56 -36 -19 -90 -49 -120 -66 -30 -17 -86 -42 -125 -57 -38 -14 -79 -32 -90
-39 -32 -21 -341 -126 -430 -146 -44 -10 -108 -25 -141 -34 -34 -9 -77 -16
-95 -16 -19 0 -50 -5 -71 -10 -57 -16 -115 -20 -383 -24 -294 -5 -420 8 -630
64 -38 11 -88 22 -110 26 -70 11 -142 36 -266 93 -35 16 -98 44 -139 63 -65
30 -81 43 -113 89 -20 30 -59 86 -86 124 -27 39 -66 97 -87 130 -20 33 -47 71
-60 85 -12 14 -39 50 -61 81 -21 31 -65 92 -98 135 -33 43 -83 113 -110 154
-112 166 -188 276 -199 285 -18 16 -65 80 -148 199 -225 324 -225 324 -294
377 -99 75 -235 89 -341 35 -27 -13 -57 -33 -67 -45 -11 -12 -25 -21 -31 -21
-7 0 -55 -28 -106 -63 -52 -34 -120 -78 -152 -97 -78 -47 -202 -125 -255 -161
-23 -16 -45 -29 -47 -29 -3 0 -31 -17 -62 -37 -32 -21 -94 -56 -138 -79 -212
-109 -253 -308 -110 -529 25 -38 66 -104 92 -145 77 -126 169 -181 304 -182
58 -1 77 4 160 44 52 24 117 60 145 79 152 102 258 162 262 149 3 -7 17 -26
32 -43 23 -27 140 -195 191 -273 9 -14 25 -33 36 -43 11 -10 51 -65 89 -121
38 -56 78 -114 89 -130 11 -15 51 -74 89 -131 38 -56 78 -109 88 -118 37 -31
40 -48 23 -124 -9 -40 -20 -81 -25 -92 -15 -40 -30 -92 -30 -104 0 -7 -15 -45
-33 -85 -19 -39 -46 -100 -62 -136 -37 -85 -40 -88 -68 -62 -37 35 -166 89
-256 107 -118 24 -245 23 -366 -3 -126 -27 -156 -36 -202 -60 -21 -10 -60 -29
-88 -41 -27 -13 -71 -36 -96 -52 -25 -16 -49 -29 -52 -29 -4 0 -23 31 -42 70
-19 38 -55 92 -80 120 -25 28 -45 55 -45 60 0 5 -45 43 -99 84 -105 80 -203
131 -280 146 -25 5 -73 16 -106 24 -176 44 -452 -22 -670 -159 -27 -17 -55
-34 -62 -38 -8 -5 -25 20 -51 75 -34 72 -75 140 -158 262 -12 17 -46 47 -75
67 -30 19 -74 49 -98 65 -85 57 -116 74 -139 74 -12 0 -48 9 -80 21 -97 35
-182 50 -222 39 -19 -5 -54 -10 -77 -10 -54 0 -222 -43 -288 -74 -27 -13 -67
-31 -88 -40 l-38 -15 -13 32 c-7 17 -34 86 -60 152 -48 125 -83 188 -151 272
-39 49 -152 143 -172 143 -5 0 -38 20 -74 45 -35 25 -72 45 -81 45 -9 0 -54
12 -100 27 -60 19 -108 27 -173 28 -94 3 -112 1 -263 -34 -51 -12 -98 -22
-104 -24 -7 -1 -22 41 -38 113 -14 63 -30 124 -34 135 -29 74 -46 110 -90 185
-77 133 -120 183 -219 257 -115 86 -222 134 -359 162 -95 19 -117 20 -195 11
-48 -6 -101 -15 -118 -20 -16 -5 -59 -16 -94 -25 -35 -9 -83 -25 -107 -35 -24
-11 -44 -18 -44 -17 -3 75 -29 192 -69 315 -83 249 -135 339 -281 480 -73 72
-101 92 -197 138 -61 30 -120 54 -130 54 -39 0 -44 14 -18 52 14 21 25 41 25
46 0 6 18 34 40 63 22 30 40 60 40 68 0 7 20 44 45 82 25 38 45 72 45 76 0 4
20 33 44 64 24 30 51 72 61 93 15 31 22 37 42 33 14 -2 41 -1 62 4 20 4 95 11
166 14 72 3 162 8 200 11 39 3 111 7 160 10 50 2 122 7 160 9 39 3 120 7 180
9 61 2 122 7 137 11 20 5 27 3 32 -12 9 -29 56 -311 66 -398 14 -114 54 -192
128 -248 73 -54 93 -64 170 -78 53 -10 77 -9 140 4 42 9 127 26 187 38 138 28
192 55 243 122 53 71 58 82 72 162 11 63 10 76 -8 130 -20 59 -43 163 -48 218
-2 29 -17 118 -36 217 -6 30 -14 85 -19 122 -4 38 -10 71 -13 76 -2 4 -7 33
-10 65 -3 32 -8 62 -11 67 -3 5 -10 42 -15 82 -24 197 -45 247 -131 313 -62
47 -90 60 -176 80 -48 11 -75 13 -102 5 -20 -5 -85 -10 -146 -11 -60 0 -137
-5 -170 -10 -33 -4 -121 -11 -195 -14 -74 -3 -171 -8 -215 -10 -44 -3 -126 -7
-183 -10 -57 -3 -107 -7 -111 -9 -4 -3 -47 -5 -96 -6 -50 -1 -142 -6 -205 -11
-162 -13 -231 -17 -425 -24 -93 -3 -194 -11 -224 -17 -94 -18 -212 18 -322 98
-26 19 -51 34 -56 34 -6 0 -18 9 -28 20 -10 11 -24 20 -31 20 -6 0 -32 16 -56
36 -23 20 -68 55 -98 78 -70 52 -329 310 -365 365 -15 22 -31 41 -34 41 -4 0
-24 25 -46 56 -22 31 -49 68 -61 83 -111 141 -298 516 -361 726 -8 28 -23 75
-34 105 -10 30 -23 80 -29 110 -5 30 -15 78 -20 105 -6 28 -12 64 -14 80 -2
17 -11 87 -20 158 -23 170 -16 434 19 667 12 83 51 236 77 305 17 44 44 116
60 160 17 44 37 94 46 110 8 17 33 64 54 105 22 41 57 110 79 153 35 69 141
223 184 268 9 9 34 41 56 70 48 65 101 128 154 183 22 23 69 73 106 112 78 83
196 189 238 215 17 10 31 23 31 28 0 5 28 28 61 52 34 24 69 51 78 59 36 33
144 109 363 257 68 46 79 55 207 163 46 39 86 68 89 65 3 -2 -2 -13 -11 -22
-8 -10 -26 -41 -39 -68 -13 -28 -36 -70 -50 -95 -35 -59 -128 -266 -128 -284
0 -8 -17 -52 -39 -98 -34 -75 -50 -138 -65 -258 -5 -38 -38 -206 -56 -280 -8
-33 -8 -54 1 -77 7 -23 8 -42 1 -65 -6 -19 -8 -84 -5 -153 2 -66 4 -133 4
-150 -1 -16 3 -59 9 -95 6 -36 12 -83 14 -105 11 -115 26 -215 40 -255 8 -25
20 -76 26 -114 6 -38 20 -94 31 -125 11 -31 34 -96 51 -146 16 -49 41 -117 55
-150 14 -33 44 -110 68 -171 23 -61 58 -135 78 -165 19 -30 49 -83 66 -119 38
-84 103 -186 212 -332 27 -36 49 -71 49 -76 0 -11 165 -179 323 -330 109 -104
225 -192 254 -192 8 0 43 -23 78 -50 82 -65 234 -136 332 -156 43 -8 85 -18
93 -21 108 -44 229 -64 370 -63 253 3 320 12 495 66 61 19 117 34 125 34 22 0
251 90 281 111 14 10 56 29 93 43 58 22 215 114 411 241 28 18 68 42 90 55 22
13 54 35 70 50 17 15 71 58 121 96 197 149 420 337 555 466 41 40 97 91 124
113 26 22 87 78 135 125 48 47 119 117 159 155 110 107 277 325 321 421 82
178 89 415 17 586 -20 47 -133 243 -163 283 -102 134 -217 272 -309 371 -52
56 -108 119 -124 140 -15 21 -61 74 -102 116 -41 43 -85 92 -99 110 -23 29
-74 87 -125 143 -11 12 -51 61 -90 109 -38 48 -98 121 -132 162 -35 41 -63 79
-63 84 0 5 -18 30 -40 57 -23 26 -51 62 -65 78 -13 17 -41 50 -62 75 -21 25
-51 64 -68 85 -16 22 -48 60 -71 85 -23 25 -50 56 -60 70 -33 42 -197 202
-278 270 -104 88 -286 209 -366 244 -36 16 -83 37 -105 46 -22 10 -67 23 -100
29 -33 6 -97 18 -141 26 -89 17 -377 20 -449 5 -22 -5 -83 -16 -135 -25 -52
-9 -115 -22 -140 -29 -25 -8 -85 -26 -135 -41 -177 -53 -278 -89 -319 -114
-17 -10 -98 -45 -181 -76 -113 -44 -180 -77 -273 -136 -68 -44 -125 -79 -127
-79 -1 0 34 37 77 83 44 45 89 93 100 107 11 14 36 43 57 65 20 22 55 63 76
91 100 127 139 174 145 174 4 0 34 34 66 76 32 43 63 82 69 88 6 6 67 83 135
171 68 88 133 169 143 180 10 11 26 34 34 50 8 17 25 41 38 55 39 44 215 279
215 288 0 5 15 26 33 48 56 68 93 118 107 144 7 14 42 62 77 108 34 46 63 89
63 95 0 7 29 48 65 92 36 44 68 89 71 100 4 11 33 55 65 97 33 42 73 102 89
133 16 31 44 75 63 98 46 58 92 133 117 191 11 27 34 64 50 83 16 18 32 46 35
61 4 15 10 46 16 70 28 123 -81 287 -240 360 -29 13 -82 46 -117 73 -102 77
-217 89 -331 33 -66 -32 -182 -156 -223 -238 -17 -32 -49 -83 -71 -113 -41
-52 -57 -78 -100 -157 -12 -22 -29 -47 -38 -55 -34 -31 -89 -108 -105 -145 -9
-21 -42 -73 -75 -115 -32 -42 -65 -90 -74 -107 -8 -16 -38 -58 -66 -92 -28
-35 -59 -78 -67 -94 -9 -17 -42 -63 -75 -103 -32 -39 -59 -75 -59 -80 0 -9
-41 -63 -165 -220 -39 -49 -81 -106 -92 -125 -16 -28 -126 -171 -211 -275 -10
-11 -37 -46 -61 -78 -24 -32 -45 -56 -48 -54 -4 5 17 55 69 167 22 47 50 114
62 150 59 170 85 235 152 378 24 52 48 111 54 132 15 56 102 247 139 304 17
28 31 53 31 58 0 9 84 184 104 218 9 14 31 57 50 95 32 64 83 164 165 320 18
32 38 66 45 75 7 8 16 22 20 30 3 8 20 35 36 60 17 25 43 70 58 101 16 31 55
92 87 134 32 42 70 103 86 135 15 31 33 63 41 71 33 36 87 107 103 139 10 19
36 55 57 80 22 25 52 65 66 90 32 54 163 220 247 311 33 36 87 99 120 139 77
95 146 170 215 234 30 28 109 103 175 167 66 64 143 136 170 159 28 23 60 50
72 61 13 10 69 55 125 99 57 45 114 91 128 103 14 12 37 30 50 39 14 10 43 31
65 47 22 17 53 38 69 46 15 9 56 37 90 62 69 51 197 128 336 201 62 33 286
145 395 196 91 44 398 159 485 182 47 12 139 38 205 57 137 39 240 64 305 73
25 3 90 15 145 27 55 11 114 21 131 23 17 1 44 4 60 8 59 12 303 36 424 42 69
3 126 6 127 7 4 4 478 -2 563 -7z m20075 -1 c147 -8 393 -34 429 -45 15 -6 32
-7 37 -4 5 3 49 -4 97 -15 48 -11 123 -26 167 -32 85 -11 246 -51 390 -94 50
-15 123 -36 163 -46 41 -10 78 -21 83 -24 4 -3 37 -16 71 -29 212 -78 281
-107 446 -187 205 -100 477 -250 567 -314 33 -23 98 -68 145 -100 47 -32 110
-77 140 -101 185 -146 236 -188 340 -278 63 -55 129 -114 145 -131 17 -16 84
-82 151 -145 125 -120 248 -254 324 -354 24 -32 50 -61 58 -63 7 -3 56 -60
109 -127 53 -66 100 -123 103 -126 4 -3 17 -23 28 -45 11 -22 45 -70 74 -107
29 -38 66 -89 83 -115 16 -27 44 -64 61 -83 18 -19 45 -62 61 -95 16 -33 55
-93 86 -134 31 -40 66 -94 77 -119 11 -25 45 -82 75 -127 55 -84 86 -138 169
-300 25 -49 50 -97 56 -105 5 -8 28 -53 51 -100 23 -47 56 -114 74 -150 18
-36 47 -94 65 -130 17 -36 42 -85 55 -110 40 -74 105 -220 105 -235 0 -8 36
-95 80 -193 44 -99 80 -186 80 -194 0 -8 11 -36 24 -64 12 -27 26 -62 30 -79
4 -16 34 -90 67 -162 32 -73 59 -138 59 -144 0 -6 -33 31 -73 83 -40 51 -111
141 -158 200 -46 59 -95 125 -109 147 -14 22 -44 64 -68 93 -121 151 -155 196
-169 223 -16 30 -62 93 -96 130 -10 11 -27 36 -37 55 -10 19 -43 65 -72 102
-29 38 -66 87 -81 110 -15 24 -46 68 -68 98 -22 30 -49 74 -60 98 -11 23 -43
70 -72 105 -45 54 -117 161 -117 174 0 2 -21 32 -47 66 -27 34 -60 86 -74 116
-33 70 -150 199 -213 236 -116 66 -234 59 -340 -22 -33 -25 -85 -57 -115 -71
-128 -59 -218 -159 -242 -270 -16 -76 3 -173 45 -227 18 -22 42 -62 55 -90 26
-58 80 -142 127 -200 17 -23 39 -58 48 -79 9 -21 38 -66 65 -99 27 -34 65 -89
84 -123 20 -33 56 -83 80 -110 24 -27 53 -69 64 -94 12 -25 48 -80 82 -122 34
-43 61 -81 61 -85 0 -5 27 -41 59 -82 33 -41 66 -86 73 -100 7 -14 39 -60 70
-101 63 -83 145 -191 243 -320 107 -141 336 -426 461 -575 42 -49 104 -124
137 -165 34 -41 87 -100 118 -131 31 -32 66 -71 79 -88 l22 -31 -49 29 c-160
98 -207 123 -283 151 -162 60 -195 74 -230 95 -19 12 -55 27 -80 34 -25 7 -50
17 -57 23 -6 5 -44 18 -85 28 -40 10 -111 31 -158 46 -47 14 -143 38 -215 52
-112 22 -158 26 -330 26 -260 1 -392 -22 -558 -96 -61 -27 -129 -62 -152 -79
-22 -16 -66 -47 -98 -68 -65 -43 -228 -172 -265 -211 -104 -108 -151 -160
-236 -260 -113 -135 -105 -125 -167 -204 -27 -33 -57 -70 -67 -81 -10 -11 -29
-36 -43 -55 -26 -38 -40 -55 -139 -179 -104 -130 -318 -382 -367 -431 -24 -25
-89 -99 -145 -165 -56 -66 -115 -131 -131 -145 -27 -23 -203 -234 -236 -284
-8 -11 -23 -31 -34 -42 -40 -46 -164 -274 -185 -340 -33 -105 -44 -259 -26
-358 9 -45 22 -94 29 -111 8 -16 27 -59 43 -95 46 -103 351 -470 390 -470 7 0
12 -3 12 -8 0 -10 130 -137 225 -220 44 -39 114 -102 155 -142 41 -40 92 -83
112 -96 21 -14 38 -29 38 -34 0 -5 20 -24 44 -42 24 -18 88 -69 141 -113 54
-44 116 -93 138 -108 22 -16 72 -55 111 -88 39 -33 98 -76 131 -95 54 -31 171
-104 344 -215 35 -22 93 -52 130 -66 36 -13 85 -36 109 -49 54 -32 181 -79
292 -109 47 -13 101 -30 121 -39 39 -16 213 -47 294 -52 28 -2 113 -3 190 -4
140 -1 163 3 325 51 19 6 71 19 115 28 107 25 259 95 337 156 34 27 81 56 103
63 47 16 137 87 252 198 45 43 96 93 115 110 74 68 176 182 213 239 22 33 59
85 82 117 24 31 43 59 43 62 0 3 16 28 35 55 19 27 56 91 81 142 26 51 59 110
74 130 15 21 37 66 49 101 12 35 26 72 31 83 35 78 90 214 90 224 0 6 20 64
44 129 25 64 50 151 57 192 6 41 18 92 25 114 8 21 26 124 40 230 21 153 27
238 29 431 3 233 2 243 -27 380 -17 77 -34 172 -38 210 -11 95 -18 118 -57
201 -18 39 -33 78 -33 86 0 9 -11 40 -24 71 -54 120 -108 233 -120 247 -7 8
-21 35 -31 60 -10 25 -29 60 -42 78 -13 17 -22 32 -19 32 4 0 64 -47 131 -105
69 -58 126 -102 182 -138 252 -163 493 -350 695 -540 93 -87 267 -277 304
-332 14 -22 43 -58 63 -81 67 -75 166 -218 193 -279 15 -34 43 -87 62 -120 20
-32 36 -64 36 -70 0 -6 11 -26 24 -44 14 -19 28 -48 32 -65 3 -17 19 -59 35
-94 16 -35 29 -70 29 -77 0 -8 14 -44 30 -80 17 -36 30 -74 30 -84 0 -11 9
-59 19 -108 21 -95 39 -213 39 -253 0 -14 4 -65 10 -115 11 -99 7 -297 -8
-390 -5 -33 -12 -85 -15 -115 -9 -81 -44 -258 -61 -310 -9 -25 -26 -79 -38
-120 -83 -269 -223 -547 -386 -765 -16 -22 -37 -51 -47 -65 -9 -14 -31 -41
-48 -61 -16 -20 -43 -52 -60 -72 -67 -81 -219 -229 -317 -308 -56 -46 -105
-87 -108 -90 -3 -3 -43 -30 -90 -59 -47 -29 -94 -61 -105 -71 -27 -24 -117
-63 -184 -79 -41 -10 -69 -10 -125 -1 -39 6 -136 13 -216 16 -80 3 -208 10
-285 15 -77 6 -198 12 -270 15 -71 3 -152 8 -180 12 -27 3 -77 7 -110 8 -33 2
-107 6 -165 9 -58 3 -161 8 -230 11 -69 3 -152 9 -185 14 -33 5 -109 9 -170
10 -60 1 -128 6 -150 11 -43 10 -155 -9 -204 -34 -54 -28 -130 -96 -155 -138
-18 -32 -29 -74 -41 -162 -9 -65 -21 -130 -26 -143 -5 -13 -9 -41 -9 -61 0
-20 -5 -53 -10 -73 -6 -20 -15 -70 -21 -110 -31 -213 -52 -335 -73 -437 -9
-40 -21 -82 -26 -92 -14 -27 -12 -106 4 -168 17 -61 83 -153 136 -188 34 -22
152 -56 240 -69 25 -3 78 -13 118 -22 161 -34 322 37 391 172 22 42 35 90 46
160 8 55 26 165 40 245 14 80 25 149 25 154 0 4 17 5 38 1 20 -4 82 -9 137
-11 55 -2 129 -6 165 -8 36 -3 110 -7 165 -9 55 -3 125 -8 155 -11 30 -3 120
-8 200 -11 80 -3 160 -9 179 -15 19 -5 44 -7 57 -4 18 5 26 -1 40 -28 9 -18
37 -59 61 -92 24 -32 47 -66 50 -75 4 -9 24 -42 45 -73 21 -31 38 -63 38 -71
0 -7 18 -39 40 -70 22 -30 40 -58 40 -61 0 -4 11 -24 25 -46 14 -22 25 -42 25
-44 0 -3 -19 -10 -42 -17 -93 -25 -229 -102 -302 -171 -39 -37 -74 -68 -78
-68 -12 0 -95 -124 -130 -195 -39 -78 -82 -189 -105 -268 -8 -28 -21 -74 -29
-102 -8 -27 -17 -79 -20 -115 -3 -35 -7 -66 -9 -68 -1 -2 -11 1 -22 7 -60 32
-262 85 -368 95 -82 8 -265 -30 -367 -77 -114 -53 -249 -160 -309 -245 -79
-113 -164 -288 -183 -378 -35 -163 -39 -175 -55 -168 -15 6 -132 34 -226 53
-70 15 -224 6 -287 -17 -31 -11 -76 -23 -100 -27 -26 -5 -67 -24 -105 -51 -34
-24 -66 -44 -71 -44 -22 0 -135 -95 -181 -153 -61 -78 -105 -156 -141 -255
-16 -43 -39 -103 -52 -134 l-24 -57 -104 45 c-112 49 -245 84 -313 84 -23 0
-58 5 -77 10 -40 11 -144 -6 -195 -33 -17 -8 -50 -18 -74 -22 -70 -12 -92 -23
-260 -142 -72 -51 -156 -163 -226 -302 -18 -36 -36 -76 -40 -89 l-7 -23 -36
22 c-110 66 -163 92 -260 128 -181 68 -320 85 -452 56 -36 -8 -86 -19 -112
-25 -163 -33 -402 -226 -491 -395 -18 -33 -36 -66 -40 -72 -6 -10 -22 -5 -65
19 -31 17 -64 35 -72 39 -218 116 -466 158 -678 115 -89 -19 -196 -63 -249
-103 -19 -14 -35 -24 -37 -22 -3 4 -8 16 -66 144 -17 39 -38 82 -45 98 -8 15
-19 53 -26 85 -7 31 -18 66 -26 77 -7 11 -13 31 -13 46 0 14 -7 48 -15 74
l-14 49 32 37 c43 51 61 76 148 202 164 239 199 290 226 322 40 49 61 78 134
185 35 52 72 103 81 115 10 11 23 28 30 38 13 17 19 14 103 -38 50 -32 104
-64 120 -72 17 -8 39 -23 50 -33 36 -33 193 -108 248 -120 43 -9 69 -8 126 4
104 22 171 77 247 204 32 54 67 111 80 127 30 40 70 141 78 196 17 124 -56
254 -174 311 -36 17 -87 46 -115 63 -53 35 -341 215 -438 274 -32 20 -73 46
-90 58 -18 12 -52 34 -77 49 -25 15 -77 49 -117 75 -90 59 -150 70 -259 46
-57 -12 -84 -25 -131 -62 -33 -25 -69 -63 -81 -83 -12 -21 -30 -47 -42 -57
-11 -10 -34 -42 -50 -70 -16 -28 -40 -61 -54 -74 -14 -14 -26 -28 -26 -33 0
-12 -118 -178 -176 -246 -17 -20 -36 -46 -42 -57 -5 -11 -32 -50 -59 -86 -26
-37 -53 -75 -60 -85 -44 -68 -189 -273 -208 -294 -22 -26 -90 -119 -160 -221
-161 -234 -197 -286 -208 -301 -7 -9 -55 -35 -107 -58 -52 -24 -120 -54 -150
-67 -129 -58 -115 -53 -250 -83 -383 -86 -415 -89 -730 -84 -140 3 -271 7
-290 9 -65 7 -174 27 -280 50 -58 13 -122 27 -144 30 -21 4 -46 10 -55 14 -43
22 -93 41 -107 41 -19 0 -163 53 -229 84 -27 13 -72 32 -100 42 -61 21 -246
121 -335 181 -178 119 -208 142 -277 211 -29 28 -56 52 -62 52 -12 0 -245 257
-311 343 -28 38 -63 93 -76 124 -14 30 -38 71 -54 91 -16 21 -47 78 -70 127
-22 50 -45 98 -50 107 -5 9 -16 45 -24 81 -8 35 -26 89 -39 118 -13 30 -31 95
-40 144 -9 50 -22 115 -27 145 -34 174 -44 471 -25 705 11 137 70 475 95 543
11 29 24 91 29 137 6 47 13 89 15 94 7 11 21 271 18 334 -2 56 14 55 24 -1 3
-20 17 -58 29 -84 13 -25 44 -95 70 -155 26 -59 54 -117 61 -128 8 -11 14 -26
14 -34 0 -16 54 -100 120 -186 26 -33 58 -80 72 -105 23 -40 137 -169 247
-281 46 -47 146 -136 196 -174 22 -16 53 -42 70 -56 30 -26 143 -103 252 -170
32 -19 94 -58 138 -86 122 -76 317 -168 495 -233 181 -67 280 -100 295 -100
18 0 63 -12 199 -52 38 -11 104 -22 147 -23 43 -2 82 -6 87 -9 5 -3 59 -13
119 -21 147 -21 528 -15 663 9 174 31 274 57 354 92 44 19 84 34 90 34 5 0 28
8 50 18 75 34 100 47 258 136 57 33 126 89 233 191 23 22 57 54 76 71 19 17
43 44 54 62 11 17 44 66 74 109 57 83 241 436 241 462 0 9 10 41 21 71 12 30
30 87 40 125 10 39 26 95 35 125 17 58 36 151 59 286 7 44 18 100 25 124 6 23
9 54 5 67 -3 13 -1 40 4 61 9 33 16 119 27 332 6 124 6 706 -1 840 -3 74 -8
173 -9 220 -7 165 -18 286 -33 365 -8 44 -19 102 -24 128 -11 66 -16 79 -66
186 -42 90 -82 152 -129 198 -12 13 -34 37 -48 55 -13 18 -44 43 -68 55 -94
47 -174 82 -203 89 -16 3 -55 14 -85 24 -154 50 -276 57 -1125 65 -269 2 -533
6 -585 8 -177 9 -415 19 -475 21 -33 1 -150 -1 -260 -5 -218 -9 -467 -45 -540
-79 -22 -10 -59 -24 -83 -30 -40 -10 -140 -57 -288 -133 -65 -34 -135 -86
-195 -146 -19 -20 -64 -64 -100 -98 -89 -85 -137 -145 -194 -238 -26 -44 -63
-102 -80 -130 -38 -60 -115 -210 -115 -224 0 -6 -11 -26 -24 -45 -20 -30 -56
-115 -101 -236 -7 -19 -20 -69 -30 -110 -10 -41 -22 -82 -26 -90 -26 -47 -98
-342 -110 -450 -1 -8 -5 3 -11 25 -9 41 -11 51 -48 265 -12 69 -27 139 -35
155 -7 17 -20 73 -30 125 -9 52 -25 110 -34 130 -10 19 -24 73 -31 120 -7 47
-23 108 -35 135 -12 28 -28 79 -35 115 -15 80 -51 194 -79 249 -12 22 -28 69
-35 103 -29 125 -72 248 -134 380 -22 47 -43 106 -47 130 -4 24 -16 63 -26 87
-10 24 -19 50 -19 57 0 8 -16 48 -35 89 -19 41 -39 92 -45 113 -8 33 -57 144
-199 457 -10 22 -24 58 -31 80 -34 105 -113 265 -158 320 -95 118 -249 144
-415 70 -78 -34 -188 -85 -221 -101 -59 -29 -128 -91 -156 -139 -53 -94 -47
-207 18 -340 16 -33 44 -94 62 -135 18 -41 48 -109 67 -150 20 -41 50 -109 68
-150 18 -41 44 -101 59 -132 14 -31 26 -65 26 -75 0 -10 14 -45 31 -78 16 -33
37 -90 45 -127 8 -37 26 -90 40 -118 13 -27 24 -57 24 -65 0 -8 12 -40 26 -72
15 -32 39 -85 54 -118 15 -33 35 -94 45 -135 23 -99 58 -207 84 -261 23 -47
65 -188 58 -195 -2 -2 -17 26 -32 63 -16 38 -41 91 -56 118 -15 28 -43 82 -62
120 -18 39 -46 84 -60 101 -15 17 -50 83 -78 145 -28 63 -59 125 -69 139 -9
14 -27 48 -40 75 -79 176 -110 250 -110 261 0 8 -14 44 -31 81 -17 38 -46 100
-64 139 -18 39 -35 91 -39 116 -4 26 -20 74 -37 108 -16 34 -33 76 -36 94 -3
17 -14 43 -24 58 -11 14 -19 33 -19 42 0 8 -15 48 -34 88 -19 40 -41 107 -49
148 -16 81 -26 112 -65 205 -13 33 -33 96 -42 140 -10 44 -30 123 -45 175 -41
147 -73 277 -90 369 -8 46 -18 88 -22 94 -3 5 -14 55 -25 111 -72 387 -107
945 -85 1356 4 74 10 174 12 221 2 48 13 140 25 204 11 65 20 131 20 148 0 16
4 46 10 66 30 114 50 211 50 239 0 18 12 65 26 105 14 39 33 101 41 137 8 36
19 69 24 75 5 5 9 16 9 25 0 18 44 163 73 240 24 64 66 156 148 326 33 67 59
126 59 131 0 5 16 36 36 69 36 59 62 105 124 219 18 33 41 69 51 80 9 11 28
41 42 66 30 57 90 146 137 204 31 38 85 110 145 194 53 75 106 141 151 187 27
27 63 68 79 89 42 56 80 96 287 303 198 199 245 242 356 327 39 31 72 60 72
64 0 4 46 43 102 87 56 43 112 88 124 100 12 11 38 30 59 43 20 12 65 44 99
71 148 119 215 169 252 186 21 10 80 48 129 84 50 37 110 75 135 85 25 10 86
48 135 85 50 36 128 83 175 104 47 21 137 73 200 115 69 45 181 106 280 151
91 41 179 84 195 96 17 11 92 48 168 82 76 34 159 78 184 97 25 19 49 35 53
35 5 0 46 18 92 39 45 22 103 43 128 47 25 4 91 28 146 54 56 27 119 54 140
60 92 30 102 34 302 126 41 19 80 34 87 34 7 0 34 9 60 20 26 11 56 20 68 20
28 0 156 43 227 76 30 15 100 35 155 46 55 11 123 30 150 43 28 12 75 28 105
34 30 7 89 22 130 32 41 11 89 22 105 25 85 13 153 29 175 41 14 7 36 13 50
13 14 0 57 7 95 16 39 8 90 17 114 20 23 2 62 9 85 15 22 6 82 15 131 20 50 6
128 16 175 24 136 24 317 40 553 49 54 2 100 6 103 9 7 7 448 1 609 -8z
m-26842 -14032 c79 -187 85 -437 17 -758 -5 -27 -13 -68 -16 -90 -3 -22 -16
-65 -29 -95 -21 -51 -45 -153 -45 -193 0 -32 -159 -376 -184 -396 -21 -17
-139 -8 -217 17 -70 22 -89 55 -93 154 -2 69 26 335 40 368 10 26 32 113 39
160 4 25 15 68 25 95 21 60 34 110 51 190 7 33 30 97 51 143 21 46 38 86 39
90 0 4 16 27 35 52 19 25 46 67 61 94 30 52 177 206 198 206 6 0 19 -17 28
-37z m32977 7 c79 -70 123 -117 139 -150 9 -19 38 -65 65 -102 67 -92 112
-196 147 -341 16 -67 34 -130 39 -139 9 -16 30 -106 81 -338 10 -47 21 -142
25 -211 11 -193 -8 -226 -138 -253 -115 -24 -149 -21 -180 12 -13 15 -35 51
-47 80 -27 66 -98 222 -110 243 -5 9 -17 60 -26 114 -9 53 -28 120 -41 148
-13 29 -24 63 -24 77 0 14 -7 54 -16 90 -35 150 -43 225 -43 415 0 97 5 152
20 220 21 88 52 165 67 165 4 0 23 -14 42 -30z m-31670 -885 c15 -18 41 -131
46 -195 1 -25 -2 -90 -8 -145 -5 -55 -12 -118 -13 -140 -2 -22 -8 -60 -14 -85
-6 -25 -11 -57 -11 -72 0 -16 -16 -62 -35 -104 -19 -41 -35 -82 -35 -89 0 -8
-13 -43 -28 -77 -16 -35 -53 -117 -83 -183 -29 -66 -64 -138 -78 -160 -13 -22
-38 -69 -54 -105 -16 -36 -37 -83 -47 -105 -10 -22 -29 -52 -42 -66 -13 -15
-49 -59 -81 -98 -71 -88 -106 -106 -186 -96 -73 9 -202 76 -239 125 -24 31
-27 43 -25 103 2 37 11 103 22 145 10 42 22 97 26 122 4 24 11 51 16 60 11 19
99 211 99 215 0 4 53 121 106 232 19 40 34 74 34 77 0 22 80 163 118 208 27
32 55 70 63 85 45 87 213 255 307 306 114 62 123 65 142 42z m30406 -26 c43
-22 89 -50 103 -62 78 -68 213 -214 230 -251 12 -23 45 -71 74 -106 29 -36 60
-81 69 -100 114 -246 298 -663 298 -675 0 -8 9 -54 21 -102 11 -48 23 -118 26
-156 4 -57 1 -73 -17 -102 -53 -86 -250 -168 -331 -137 -31 12 -78 58 -144
141 -59 75 -72 97 -126 216 -22 50 -46 97 -54 105 -17 20 -195 417 -195 435 0
8 -13 43 -29 77 -19 43 -34 101 -45 178 -9 63 -21 135 -26 160 -22 113 5 388
41 411 21 13 21 13 105 -32z m-29177 -811 c35 -84 45 -193 29 -333 -28 -252
-57 -361 -151 -565 -44 -97 -69 -151 -153 -340 -45 -102 -87 -178 -121 -224
-29 -37 -53 -73 -53 -78 0 -24 -96 -122 -138 -140 -44 -20 -44 -20 -135 3
-110 27 -164 61 -206 130 -24 40 -26 74 -7 184 14 82 19 99 59 188 13 29 27
66 31 82 4 17 20 57 35 90 52 110 59 130 70 183 12 60 30 97 75 162 18 25 43
70 56 100 13 30 33 66 43 80 10 14 25 40 33 58 41 99 283 357 387 413 110 60
123 61 146 7z m27976 -1 c32 -17 82 -56 112 -85 30 -29 63 -58 72 -65 32 -22
192 -228 208 -265 8 -21 23 -46 33 -57 10 -11 30 -49 45 -85 15 -36 40 -81 55
-100 41 -52 62 -98 76 -167 7 -34 34 -104 59 -156 25 -52 45 -101 45 -110 0
-15 15 -54 60 -151 24 -54 39 -141 40 -229 0 -68 -19 -100 -90 -152 -62 -46
-205 -81 -258 -64 -41 14 -89 61 -139 139 -20 30 -51 74 -70 98 -19 23 -82
147 -139 275 -58 127 -115 252 -126 277 -11 25 -34 74 -51 110 -28 62 -66 212
-89 350 -5 36 -11 130 -12 210 -1 118 2 154 17 195 10 28 21 56 23 64 6 20 61
6 129 -32z m-26629 -612 c30 -103 36 -154 30 -280 -3 -71 -11 -155 -19 -185
-8 -30 -18 -79 -21 -109 -4 -30 -16 -71 -27 -92 -10 -21 -19 -45 -19 -53 0 -9
-11 -41 -25 -72 -14 -31 -25 -63 -25 -70 0 -7 -13 -42 -29 -76 -15 -35 -41
-92 -57 -128 -15 -36 -38 -78 -49 -95 -12 -16 -36 -64 -55 -105 -18 -41 -39
-82 -46 -90 -7 -8 -27 -46 -45 -85 -30 -66 -56 -102 -132 -183 -60 -64 -111
-77 -214 -54 -75 16 -196 108 -211 160 -12 39 -4 130 18 207 27 98 83 273 95
300 7 17 31 71 53 120 22 50 57 126 77 170 20 44 50 109 67 145 16 36 48 90
71 120 24 30 49 67 56 82 13 26 113 149 180 223 21 22 59 56 85 75 26 19 60
45 75 57 33 26 120 63 141 60 8 -1 20 -20 26 -42z m25226 28 c93 -37 224 -146
311 -258 17 -22 39 -49 50 -60 79 -84 211 -310 277 -475 10 -25 43 -98 74
-164 31 -65 56 -127 56 -138 0 -10 6 -31 14 -46 22 -44 74 -241 81 -313 10
-91 -6 -123 -91 -187 -39 -29 -84 -54 -104 -58 -19 -3 -48 -10 -65 -15 -68
-20 -146 25 -228 130 -42 55 -76 115 -162 291 -26 52 -52 102 -59 110 -7 8
-27 49 -45 90 -19 41 -47 103 -62 136 -16 34 -29 69 -29 78 0 10 -9 36 -20 58
-11 23 -20 49 -20 57 0 9 -11 40 -25 69 -14 30 -25 67 -25 82 0 16 -7 59 -16
97 -41 179 -34 433 14 511 17 26 20 27 74 5z m-23793 -400 c15 -33 43 -211 35
-224 -3 -5 -7 -53 -10 -107 -4 -98 -30 -259 -45 -277 -6 -9 -30 -89 -58 -200
-9 -32 -22 -65 -69 -165 -16 -36 -53 -116 -81 -178 -28 -62 -66 -133 -86 -159
-19 -25 -35 -53 -35 -62 0 -9 -14 -36 -31 -61 -16 -25 -42 -67 -56 -95 -35
-68 -87 -129 -131 -156 -32 -18 -47 -21 -104 -16 -72 6 -120 27 -210 90 -62
44 -67 51 -69 112 -3 76 7 123 60 300 5 17 12 46 16 65 4 19 13 49 20 65 7 17
32 73 55 125 23 52 56 127 75 165 18 39 47 104 65 145 18 41 46 93 62 115 16
22 52 76 80 120 28 44 55 81 59 83 5 2 25 26 45 53 54 73 238 233 312 270 55
27 86 25 101 -8z m22376 7 c93 -40 302 -235 392 -365 49 -71 143 -215 143
-219 0 -3 19 -44 41 -93 23 -48 66 -143 95 -211 30 -68 63 -141 75 -163 11
-22 24 -59 28 -82 5 -23 16 -69 26 -102 9 -33 21 -76 27 -95 17 -61 29 -164
22 -203 -5 -30 -16 -45 -62 -81 -83 -63 -137 -86 -217 -92 -65 -5 -73 -3 -112
23 -39 27 -123 129 -123 150 0 5 -20 40 -45 77 -25 38 -45 76 -45 84 0 8 -14
32 -31 53 -17 21 -75 137 -128 256 -90 199 -112 258 -143 378 -5 22 -16 54
-23 71 -7 17 -18 66 -25 110 -6 43 -15 102 -19 129 -16 111 -2 312 26 368 16
32 36 34 98 7z m-21012 -337 c9 -62 0 -218 -13 -243 -7 -13 -23 -73 -35 -134
-24 -116 -65 -215 -123 -295 -18 -24 -32 -48 -32 -53 0 -6 -14 -31 -32 -56
-17 -26 -39 -59 -49 -73 -10 -15 -24 -43 -33 -63 -8 -20 -37 -64 -63 -98 -50
-65 -56 -73 -86 -128 -36 -62 -156 -196 -199 -220 -73 -41 -138 -30 -217 39
l-34 30 28 63 c15 35 41 90 56 123 96 204 192 425 200 455 4 19 16 64 25 100
9 36 20 81 25 102 11 45 75 124 200 248 122 121 137 134 201 166 29 14 60 33
69 41 17 15 62 31 90 32 12 1 18 -10 22 -36z m19643 13 c165 -90 268 -177 400
-338 76 -92 94 -120 94 -144 0 -31 43 -190 67 -248 13 -32 46 -106 74 -163 27
-58 49 -107 49 -109 0 -5 119 -267 130 -287 21 -35 -83 -106 -164 -112 -32 -2
-50 4 -83 27 -43 29 -156 159 -206 236 -61 95 -78 120 -98 141 -11 12 -27 37
-35 56 -7 19 -39 73 -69 120 -30 46 -55 90 -55 96 0 6 -15 29 -33 52 -56 70
-97 171 -122 297 -9 47 -23 105 -32 130 -10 30 -15 77 -14 139 1 125 4 134 44
126 18 -4 41 -12 53 -19z"/>
<path d="M19527 32463 c3 -27 9 -61 13 -78 13 -44 10 -171 -6 -245 -8 -36 -19
-85 -24 -110 -5 -25 -21 -92 -35 -150 -15 -58 -27 -112 -28 -120 -2 -13 57
-15 467 -18 259 -1 473 1 477 5 5 5 -3 51 -15 103 -72 289 -79 335 -74 502 l4
158 -392 0 -392 0 5 -47z"/>
<path d="M10894 27540 c-124 -8 -388 -40 -484 -60 -87 -18 -275 -61 -305 -71
-16 -5 -84 -25 -150 -45 -349 -107 -730 -298 -1020 -514 -611 -454 -1016
-1118 -1131 -1850 -44 -281 -45 -613 -4 -900 52 -358 157 -691 335 -1055 272
-559 700 -1081 1226 -1496 155 -124 387 -284 511 -356 32 -18 86 -49 121 -69
170 -98 424 -219 648 -307 379 -150 740 -244 1159 -302 352 -48 820 -48 1170
1 103 14 126 18 280 49 218 44 440 110 625 185 464 188 791 403 1120 735 322
325 552 702 684 1120 17 55 36 114 41 131 19 58 55 247 76 399 20 142 23 547
6 665 -7 41 -19 125 -28 185 -15 107 -23 142 -65 310 -19 78 -81 280 -98 320
-5 11 -17 40 -26 65 -10 25 -26 64 -36 87 -11 24 -19 46 -19 49 0 11 -148 309
-181 364 -248 414 -440 661 -756 971 -285 280 -554 487 -918 704 -113 67 -472
255 -488 255 -3 0 -36 14 -74 31 -119 53 -128 57 -158 69 -68 27 -373 132
-405 140 -19 4 -80 20 -135 35 -277 74 -443 106 -735 139 -161 19 -603 28
-786 16z m536 -1085 c227 -18 340 -34 485 -65 22 -5 65 -14 95 -21 144 -31
406 -113 544 -170 37 -16 72 -29 76 -29 5 0 65 -27 135 -60 70 -33 128 -60
130 -60 10 0 317 -178 389 -227 157 -104 219 -149 336 -247 153 -126 271 -241
399 -387 95 -109 105 -121 180 -222 487 -661 649 -1415 440 -2050 -109 -330
-320 -629 -594 -838 -251 -193 -589 -352 -910 -428 -27 -7 -66 -16 -85 -21
-42 -10 -199 -34 -330 -51 -116 -14 -561 -15 -661 0 -41 5 -114 15 -164 21
-565 72 -1198 324 -1705 679 -200 139 -523 432 -650 587 -25 31 -52 63 -60 72
-35 38 -161 214 -220 307 -127 200 -240 445 -312 680 -123 397 -123 829 -1
1195 143 426 470 802 893 1025 30 16 69 36 85 45 47 26 221 95 325 130 171 56
383 102 550 120 318 33 391 35 630 15z"/>
<path d="M8519 18120 c-42 -4 -108 -19 -145 -33 -38 -14 -89 -31 -114 -37 -25
-7 -61 -20 -80 -30 -19 -10 -53 -26 -75 -35 -54 -23 -107 -51 -165 -89 -27
-17 -68 -42 -90 -56 -22 -13 -63 -46 -91 -72 -28 -26 -55 -48 -59 -48 -6 0
-51 -40 -160 -145 -25 -24 -74 -76 -110 -116 -36 -40 -83 -91 -105 -114 -22
-24 -69 -75 -105 -115 -36 -40 -87 -96 -115 -124 -250 -258 -376 -418 -463
-591 -16 -33 -50 -100 -76 -150 -25 -49 -49 -106 -52 -125 -4 -19 -20 -62 -37
-95 -17 -33 -34 -80 -39 -105 -4 -25 -12 -70 -18 -100 -5 -30 -16 -84 -23
-120 -8 -39 -10 -79 -5 -100 4 -19 5 -50 1 -68 -9 -51 26 -274 59 -382 32
-105 141 -249 256 -338 48 -38 150 -90 202 -104 98 -25 354 -42 412 -27 20 5
60 10 89 11 67 1 115 14 262 72 66 25 125 46 131 46 7 0 17 -15 23 -32 60
-185 88 -244 179 -378 57 -84 209 -221 291 -260 35 -17 79 -41 98 -55 73 -49
280 -68 415 -39 91 19 258 97 320 148 124 104 270 259 332 354 21 31 57 84 81
117 25 33 54 82 65 108 12 26 31 61 42 77 12 16 28 53 37 82 8 29 24 70 34 90
10 20 27 74 38 120 11 46 26 108 34 138 8 30 27 127 42 215 14 88 30 176 35
195 5 19 12 62 14 95 23 263 33 362 39 372 8 12 9 346 2 493 -4 86 -16 157
-59 345 -34 147 -81 275 -126 342 -18 26 -46 70 -62 97 -31 51 -76 108 -155
192 -44 48 -195 163 -253 194 -14 7 -42 27 -62 43 -20 16 -54 33 -75 37 -21 5
-65 13 -98 20 -33 7 -76 19 -95 27 -52 23 -96 33 -190 43 -47 5 -101 11 -120
14 -19 2 -69 1 -111 -4z"/>
<path d="M28730 27543 c-224 -8 -637 -68 -830 -120 -30 -8 -100 -25 -155 -39
-162 -40 -507 -159 -655 -227 -30 -14 -80 -35 -110 -48 -67 -28 -351 -173
-402 -206 -21 -12 -40 -23 -42 -23 -20 0 -371 -233 -507 -336 -721 -548 -1242
-1251 -1503 -2026 -273 -814 -223 -1638 143 -2343 242 -467 629 -879 1085
-1155 133 -81 307 -171 431 -224 50 -21 104 -44 120 -52 42 -18 288 -100 360
-119 227 -63 512 -113 765 -135 150 -13 545 -13 707 1 610 50 1199 214 1768
493 405 199 753 428 1080 710 111 95 374 361 472 477 614 723 943 1549 943
2368 0 543 -134 1025 -414 1491 -272 451 -704 845 -1221 1109 -158 81 -411
184 -565 230 -58 17 -118 35 -135 40 -28 9 -205 50 -305 71 -249 52 -655 77
-1030 63z m429 -1083 c278 -24 372 -38 566 -85 501 -121 935 -383 1216 -735
46 -58 139 -194 139 -204 0 -2 15 -30 33 -63 60 -106 115 -252 152 -403 55
-227 61 -579 14 -810 -92 -443 -275 -825 -578 -1205 -377 -473 -908 -860
-1521 -1110 -286 -117 -633 -210 -905 -244 -49 -7 -126 -16 -170 -22 -108 -15
-539 -14 -656 1 -133 16 -288 40 -329 51 -19 4 -66 16 -105 24 -38 9 -131 37
-205 62 -404 136 -727 350 -985 653 -90 106 -224 342 -275 485 -114 320 -140
662 -75 1014 96 523 406 1072 849 1505 267 260 591 491 926 661 80 41 260 125
267 125 3 0 19 7 36 15 75 34 291 109 417 145 108 30 138 38 190 49 30 7 73
16 95 21 140 30 264 48 465 65 189 16 298 17 439 5z"/>
<path d="M31305 18120 c-16 -4 -52 -8 -80 -9 -53 -1 -137 -21 -173 -40 -12 -6
-73 -22 -137 -35 -87 -18 -123 -31 -146 -50 -17 -15 -45 -34 -62 -42 -63 -33
-214 -154 -275 -220 -97 -108 -102 -113 -134 -168 -17 -28 -46 -73 -64 -101
-49 -75 -144 -353 -144 -422 0 -12 -7 -48 -15 -80 -9 -32 -19 -98 -22 -148
-11 -145 -7 -471 7 -590 7 -60 14 -128 15 -150 6 -96 18 -195 30 -260 8 -38
23 -124 35 -190 12 -66 30 -156 41 -200 10 -44 27 -116 38 -160 10 -44 30
-106 44 -137 15 -31 27 -65 27 -76 0 -11 12 -37 27 -58 14 -21 37 -64 50 -94
14 -30 47 -83 74 -117 27 -34 49 -66 49 -71 0 -34 238 -292 360 -390 70 -56
216 -126 305 -146 85 -18 228 -19 312 0 63 14 230 95 293 142 105 80 173 155
267 297 15 22 51 103 80 180 30 77 56 142 58 144 3 2 67 -19 142 -47 156 -58
200 -69 262 -71 24 -1 60 -5 80 -10 56 -15 308 1 406 24 81 20 192 85 274 161
172 161 229 308 251 649 8 134 7 147 -22 290 -18 94 -40 174 -59 214 -17 35
-33 78 -36 95 -7 38 -69 175 -89 197 -8 8 -29 49 -46 90 -36 81 -33 76 -149
234 -71 97 -156 192 -334 378 -61 63 -225 243 -286 312 -132 151 -363 352
-514 447 -102 64 -238 126 -370 169 -49 16 -97 33 -107 39 -30 17 -219 32
-263 20z"/>
<path d="M28313 9858 c-150 -130 -158 -137 -242 -202 -34 -27 -77 -62 -94 -78
-18 -17 -74 -64 -126 -106 -51 -43 -121 -99 -154 -127 -142 -117 -252 -206
-467 -378 -8 -7 -37 -30 -65 -53 -27 -22 -108 -87 -180 -143 -71 -56 -159
-126 -195 -155 -36 -30 -101 -82 -145 -115 -44 -33 -159 -122 -255 -196 -255
-197 -722 -548 -1039 -780 -90 -66 -201 -148 -247 -182 -46 -34 -120 -88 -166
-119 -46 -31 -132 -94 -193 -139 -60 -46 -124 -91 -140 -101 -17 -11 -73 -49
-125 -86 -87 -62 -239 -169 -448 -315 -45 -32 -115 -82 -155 -110 -39 -29 -75
-53 -80 -53 -4 0 -47 -28 -95 -63 -80 -57 -291 -202 -347 -237 -45 -29 -231
-155 -296 -201 -36 -26 -84 -57 -107 -70 -23 -13 -92 -58 -154 -100 -329 -223
-599 -401 -653 -430 -22 -12 -56 -33 -75 -48 -19 -14 -44 -31 -55 -38 -46 -27
-134 -84 -279 -178 -85 -55 -174 -112 -198 -126 -23 -15 -92 -58 -153 -97 -60
-38 -129 -80 -151 -93 -23 -13 -73 -45 -110 -70 -134 -90 -329 -213 -444 -279
-41 -24 -106 -64 -145 -88 -103 -66 -178 -114 -227 -143 -24 -14 -80 -49 -125
-77 -45 -29 -86 -52 -90 -52 -4 -1 -24 -14 -43 -30 -19 -17 -38 -30 -43 -30
-4 0 -21 -10 -37 -21 l-28 -22 -87 54 c-47 30 -107 66 -133 81 -26 14 -108 65
-182 112 -74 47 -163 102 -197 121 -33 20 -67 42 -73 50 -7 8 -18 15 -24 15
-6 0 -56 29 -111 65 -55 35 -138 87 -185 116 -47 29 -122 76 -167 106 -44 29
-84 53 -87 53 -3 0 -52 31 -108 68 -57 38 -117 77 -135 88 -115 69 -298 185
-353 223 -101 69 -108 74 -225 148 -60 38 -145 91 -188 118 -102 65 -1177 780
-1243 827 -28 20 -143 98 -255 173 -112 76 -262 179 -334 230 -71 51 -222 157
-335 237 -113 80 -257 182 -320 226 -63 45 -158 112 -210 149 -92 65 -151 108
-411 299 -68 50 -182 133 -253 185 -70 52 -156 115 -190 141 -33 26 -107 81
-163 122 -55 41 -109 81 -120 90 -16 13 -116 89 -449 341 -61 46 -118 90 -125
98 -8 7 -32 27 -54 43 -42 30 -386 299 -505 394 -37 30 -115 92 -172 138 -96
76 -137 110 -328 267 -40 33 -91 74 -114 92 -23 18 -84 68 -136 112 -52 45
-150 126 -218 180 -67 55 -133 113 -146 128 -13 15 -44 43 -69 60 l-45 33 -61
-85 c-33 -46 -68 -99 -77 -117 -9 -18 -50 -80 -90 -138 -41 -58 -115 -163
-165 -235 -146 -208 -251 -321 -401 -432 -53 -40 -99 -77 -103 -83 -7 -11 2
-21 77 -82 23 -18 54 -44 69 -58 83 -75 100 -90 107 -90 4 0 21 -16 37 -35 17
-19 35 -35 42 -35 7 0 28 -16 47 -35 20 -19 39 -35 44 -35 5 0 23 -16 39 -35
17 -19 34 -35 39 -35 5 0 29 -18 53 -40 24 -22 47 -40 51 -40 3 0 25 -17 48
-38 22 -20 57 -50 77 -67 20 -16 42 -36 50 -42 7 -7 16 -13 20 -13 3 0 20 -13
38 -29 17 -16 43 -39 57 -50 14 -11 30 -25 37 -31 7 -5 15 -10 18 -10 6 0 27
-18 90 -77 19 -18 39 -33 44 -33 6 0 21 -11 35 -25 14 -14 28 -25 32 -25 4 0
22 -16 41 -35 19 -19 37 -35 41 -35 4 0 25 -16 45 -35 20 -19 41 -35 47 -35 5
0 25 -16 44 -35 20 -19 40 -35 45 -35 6 0 26 -16 45 -35 20 -19 39 -35 44 -35
4 0 25 -16 45 -35 20 -19 41 -35 46 -35 5 0 28 -18 51 -40 23 -22 45 -40 49
-40 4 0 25 -16 47 -35 56 -50 62 -55 69 -55 4 0 13 -6 20 -12 30 -27 44 -38
50 -38 3 0 17 -11 31 -25 14 -14 29 -25 33 -25 4 0 22 -13 39 -30 18 -16 35
-30 39 -30 5 0 28 -18 51 -40 24 -22 47 -40 51 -40 5 0 22 -14 39 -30 18 -17
35 -30 39 -30 5 0 26 -16 48 -35 22 -19 43 -35 47 -35 4 0 18 -11 32 -25 14
-14 29 -25 33 -25 5 0 20 -11 35 -25 15 -14 30 -25 33 -25 4 0 12 -6 20 -12 7
-7 25 -22 40 -32 14 -11 36 -28 47 -38 12 -10 24 -18 28 -18 4 0 21 -13 38
-30 18 -16 35 -30 40 -30 4 0 19 -11 34 -25 15 -14 32 -25 38 -25 6 0 8 -4 5
-10 -3 -5 1 -10 9 -10 8 0 26 -11 40 -25 14 -14 28 -25 31 -25 4 0 13 -6 20
-12 33 -30 45 -38 55 -38 5 0 10 -4 10 -10 0 -5 5 -10 11 -10 6 0 17 -6 24
-12 34 -30 45 -38 55 -38 6 0 8 -4 5 -10 -3 -5 -1 -10 5 -10 12 0 83 -50 88
-62 2 -5 9 -8 15 -8 7 0 24 -11 39 -25 15 -14 32 -25 38 -25 5 0 10 -4 10 -9
0 -5 8 -12 19 -16 10 -3 33 -19 50 -35 17 -17 34 -30 39 -30 4 0 19 -11 34
-25 15 -14 32 -25 38 -25 5 0 10 -4 10 -9 0 -5 8 -12 19 -16 10 -3 33 -19 50
-35 17 -17 35 -30 40 -30 6 0 21 -11 35 -25 14 -14 28 -25 31 -25 7 0 71 -47
93 -68 7 -6 17 -12 21 -12 5 0 21 -12 38 -27 31 -29 58 -49 83 -60 8 -4 22
-15 31 -25 9 -10 21 -18 27 -18 6 0 22 -11 36 -25 14 -14 28 -25 31 -25 4 0
13 -6 20 -12 34 -31 45 -38 56 -38 6 0 19 -8 28 -17 17 -19 45 -38 71 -50 8
-4 22 -15 31 -25 9 -10 21 -18 27 -18 6 0 22 -10 35 -23 24 -23 52 -42 77 -54
8 -4 25 -17 38 -30 13 -13 29 -23 36 -23 7 0 27 -13 43 -29 17 -16 40 -32 51
-35 11 -4 33 -19 49 -34 35 -32 62 -50 86 -58 9 -4 17 -10 17 -15 0 -5 7 -9
16 -9 8 0 13 -4 10 -9 -3 -5 5 -12 19 -15 14 -4 25 -11 25 -16 0 -6 6 -10 13
-10 7 0 19 -9 27 -20 8 -11 20 -20 27 -20 7 0 23 -11 37 -25 14 -14 32 -25 41
-25 8 0 15 -4 15 -9 0 -5 10 -13 23 -17 12 -4 29 -14 37 -23 16 -17 45 -37 70
-48 8 -4 22 -14 30 -23 8 -10 25 -20 36 -24 12 -4 35 -19 51 -34 16 -15 46
-36 66 -46 20 -11 37 -23 37 -28 0 -4 7 -8 15 -8 8 0 15 -4 15 -9 0 -5 10 -13
23 -17 12 -4 29 -15 38 -25 9 -11 21 -19 28 -19 6 0 11 -4 11 -9 0 -5 10 -11
23 -15 12 -3 32 -14 44 -26 12 -11 27 -20 33 -20 5 0 10 -4 10 -9 0 -5 10 -13
23 -17 12 -4 29 -14 37 -23 19 -20 49 -40 73 -47 9 -4 17 -10 17 -15 0 -5 7
-9 16 -9 8 0 12 -5 9 -10 -3 -5 2 -10 12 -10 10 0 30 -11 45 -25 15 -14 33
-25 39 -25 7 0 9 -3 6 -6 -4 -4 13 -16 36 -27 23 -12 49 -28 57 -36 8 -9 33
-25 55 -36 22 -11 47 -27 55 -35 17 -16 46 -36 70 -47 8 -4 22 -14 30 -22 8
-9 32 -25 53 -35 20 -11 37 -23 37 -28 0 -4 5 -8 12 -8 6 0 26 -11 44 -25 18
-14 37 -25 43 -25 6 0 11 -4 11 -10 0 -5 11 -12 25 -16 14 -3 25 -10 25 -15 0
-5 5 -9 11 -9 7 0 19 -8 28 -17 9 -10 32 -26 52 -36 19 -10 48 -29 64 -43 15
-13 34 -24 42 -24 7 0 13 -3 13 -8 0 -4 14 -13 30 -20 17 -8 28 -18 24 -23 -3
-5 4 -9 14 -9 11 0 25 -7 32 -15 7 -8 17 -15 23 -15 5 0 17 -8 26 -19 9 -10
26 -21 39 -25 12 -4 22 -12 22 -17 0 -5 7 -9 16 -9 9 0 24 -8 33 -17 19 -21
49 -41 74 -49 9 -4 17 -10 17 -15 0 -5 6 -9 13 -9 17 0 98 -55 92 -62 -3 -3 9
-8 27 -12 19 -3 40 -15 48 -26 8 -11 20 -20 26 -20 7 0 14 -3 16 -7 2 -5 21
-17 43 -28 22 -11 50 -30 63 -42 13 -13 29 -23 37 -23 8 0 15 -4 15 -10 0 -5
9 -10 20 -10 11 0 20 -4 20 -10 0 -5 7 -10 17 -10 9 0 13 -3 10 -7 -7 -6 23
-27 56 -39 9 -3 17 -10 17 -15 0 -5 9 -9 21 -9 11 0 18 -4 15 -9 -4 -5 6 -12
22 -16 15 -3 34 -15 42 -25 8 -11 20 -20 27 -20 7 0 13 -4 13 -10 0 -5 8 -10
19 -10 10 0 24 -7 31 -15 7 -8 19 -15 26 -15 8 0 14 -3 14 -8 0 -4 17 -16 38
-27 20 -11 44 -28 53 -37 9 -10 23 -18 31 -18 9 0 21 -7 28 -15 7 -8 19 -15
26 -15 8 0 14 -4 14 -10 0 -5 7 -10 15 -10 8 0 15 -4 15 -10 0 -5 11 -12 24
-16 14 -3 32 -14 42 -25 9 -10 23 -19 31 -19 7 0 13 -4 13 -9 0 -5 11 -12 25
-15 14 -4 25 -11 25 -16 0 -6 7 -10 15 -10 8 0 15 -4 15 -10 0 -5 7 -10 16
-10 8 0 12 -4 9 -10 -3 -5 3 -10 13 -10 11 0 25 -7 32 -15 7 -8 19 -15 26 -15
8 0 14 -4 14 -10 0 -5 9 -10 21 -10 11 0 18 -4 15 -9 -3 -5 4 -11 17 -15 12
-3 31 -14 42 -24 11 -10 39 -27 63 -37 23 -10 42 -22 42 -27 0 -4 7 -8 17 -8
9 0 14 -3 10 -6 -3 -4 22 -20 56 -38 34 -17 68 -36 75 -43 7 -7 20 -13 28 -13
8 0 14 -4 14 -10 0 -5 6 -10 13 -10 7 0 19 -9 26 -19 8 -11 34 -27 58 -37 23
-10 43 -22 43 -26 0 -4 7 -8 15 -8 8 0 15 -4 15 -9 0 -5 10 -11 23 -15 12 -3
32 -14 44 -26 12 -11 27 -20 33 -20 5 0 10 -4 10 -9 0 -5 10 -11 23 -15 12 -3
32 -14 44 -26 12 -11 27 -20 33 -20 5 0 10 -4 10 -9 0 -5 12 -12 27 -16 15 -3
34 -14 42 -24 9 -10 27 -21 41 -24 14 -3 35 -15 47 -27 13 -11 36 -20 53 -20
17 0 29 -4 26 -9 -3 -4 25 -11 61 -15 37 -4 73 -12 80 -17 19 -17 201 -23 253
-9 25 7 75 17 113 23 37 6 67 14 67 19 0 4 13 8 28 8 16 0 34 8 42 20 8 10 27
22 42 25 15 4 28 10 28 14 0 4 16 16 35 27 19 10 35 22 35 26 0 5 7 8 16 8 9
0 24 8 33 19 9 10 26 21 39 25 12 4 22 12 22 17 0 5 7 9 15 9 8 0 15 5 15 10
0 6 7 10 16 10 8 0 22 6 29 13 33 29 45 37 55 37 5 0 10 4 10 9 0 5 8 11 18
15 21 7 49 25 76 49 11 9 26 17 33 17 7 0 13 4 13 9 0 5 14 12 31 16 17 4 47
22 67 41 20 19 43 34 50 34 8 0 22 8 31 19 9 10 26 21 39 25 12 4 22 12 22 17
0 5 9 9 20 9 11 0 20 5 20 10 0 6 7 10 15 10 8 0 15 4 15 10 0 5 11 12 25 16
14 3 25 10 25 15 0 5 7 9 15 9 9 0 27 11 41 25 14 14 31 25 39 25 8 0 15 5 15
10 0 6 7 10 15 10 8 0 15 5 15 10 0 6 6 10 14 10 7 0 19 7 26 15 7 8 19 15 28
15 8 0 22 8 31 18 9 10 35 27 58 39 23 11 40 23 36 27 -3 3 2 6 13 6 11 0 26
9 34 20 8 11 29 23 48 26 18 4 30 9 28 12 -7 6 58 52 73 52 5 0 16 6 23 13 20
18 50 37 71 43 9 4 17 10 17 15 0 5 8 9 18 9 10 0 24 9 32 20 8 11 20 20 26
20 7 0 19 6 26 13 7 6 27 19 43 27 17 8 35 20 42 25 7 6 19 16 27 23 8 6 20
12 26 12 5 0 10 5 10 10 0 6 6 10 14 10 7 0 19 7 26 15 7 8 21 15 32 15 10 0
16 5 13 10 -3 6 1 10 9 10 9 0 16 5 16 10 0 6 7 10 15 10 8 0 15 4 15 9 0 5
11 12 25 15 14 4 25 11 25 16 0 6 6 10 13 10 8 0 22 9 31 19 10 11 29 22 44
26 14 3 33 14 41 23 21 23 67 52 82 52 6 0 19 8 28 19 9 10 26 21 39 25 12 4
22 12 22 17 0 5 7 9 15 9 8 0 15 3 15 8 0 7 30 25 63 38 9 3 17 10 17 15 0 5
7 9 15 9 8 0 15 4 15 9 0 5 8 11 18 15 22 7 53 27 72 47 8 8 33 23 55 34 22
10 47 25 55 34 16 17 45 37 70 48 8 4 22 14 30 23 8 9 33 24 55 35 22 10 47
25 55 34 8 9 32 25 53 35 20 11 37 23 37 28 0 4 6 8 14 8 7 0 19 7 26 15 7 8
20 15 29 15 9 0 23 9 31 20 8 11 20 20 27 20 7 0 13 4 13 9 0 5 10 13 23 17
12 4 29 15 38 25 9 11 21 19 26 19 6 0 16 7 23 15 7 8 21 15 32 15 10 0 16 5
13 10 -3 6 1 10 9 10 9 0 16 5 16 10 0 6 7 10 15 10 8 0 15 4 15 9 0 5 11 12
25 15 14 4 25 11 25 16 0 6 5 10 10 10 6 0 23 11 38 25 15 14 30 25 35 25 4 0
17 8 28 19 11 10 36 27 57 37 20 11 47 29 60 42 12 12 29 22 37 22 8 0 15 5
15 10 0 6 7 10 15 10 8 0 15 4 15 9 0 5 18 18 40 29 22 10 37 22 33 26 -3 3 2
6 13 6 11 0 26 9 34 20 8 11 20 20 27 20 7 0 22 10 35 23 13 12 42 32 65 43
23 12 40 24 36 28 -3 3 1 6 10 6 10 0 17 4 17 9 0 5 17 17 38 26 20 10 44 25
52 34 16 17 45 37 70 48 8 4 22 14 30 23 8 10 25 20 38 24 12 4 22 12 22 17 0
5 7 9 15 9 8 0 15 4 15 8 0 5 17 17 38 28 20 10 44 27 53 37 9 9 21 17 28 17
6 0 11 4 11 10 0 5 11 12 25 16 14 3 22 10 19 15 -3 5 2 9 10 9 9 0 16 4 16 9
0 5 8 12 18 15 32 12 62 33 55 39 -3 4 1 7 10 7 9 0 17 4 17 9 0 5 18 18 40
29 22 10 37 22 33 26 -3 3 -1 6 6 6 7 0 26 11 43 25 16 14 35 25 42 25 6 0 18
9 26 20 8 11 20 20 27 20 7 0 13 4 13 9 0 5 10 13 22 17 12 3 32 17 45 30 13
13 29 24 36 24 7 0 19 9 27 20 8 11 20 20 27 20 7 0 13 4 13 10 0 5 11 12 25
16 14 3 22 10 19 15 -3 5 0 9 7 9 6 0 19 8 28 19 9 10 26 21 39 25 12 4 22 12
22 17 0 5 5 9 10 9 6 0 23 11 38 25 15 14 30 25 34 25 7 0 16 7 70 53 12 9 25
17 29 17 8 0 36 20 64 48 8 6 18 12 24 12 5 0 21 10 34 23 24 23 52 42 77 54
8 4 25 16 37 28 37 34 52 45 60 45 5 0 15 9 23 20 8 11 20 20 27 20 7 0 23 10
36 23 24 23 51 42 77 54 8 4 27 19 44 35 16 15 32 28 37 28 4 0 14 6 21 13 21
19 86 67 92 67 4 0 20 14 38 30 17 17 34 30 39 30 4 0 14 6 21 13 28 26 87 67
98 67 6 0 8 5 5 10 -3 6 1 10 9 10 9 0 16 4 16 10 0 5 11 12 25 16 14 3 22 10
19 15 -3 5 0 9 6 9 6 0 22 11 36 25 14 14 30 25 36 25 6 0 18 8 27 18 16 17
43 36 68 48 7 3 29 21 50 40 20 19 41 34 45 34 4 0 25 16 45 35 20 19 41 35
46 35 5 0 17 8 26 18 9 10 31 27 49 37 17 11 32 23 32 27 0 4 5 8 10 8 12 0
15 3 74 55 22 19 48 37 58 41 10 3 18 10 18 15 0 5 5 9 10 9 6 0 22 11 36 25
14 14 29 25 35 25 5 0 25 15 43 33 18 17 45 41 60 51 15 11 37 28 48 38 12 10
27 18 35 18 8 0 11 5 8 10 -3 6 -1 10 5 10 6 0 23 11 38 25 15 14 30 25 35 25
4 0 18 10 31 23 35 34 71 64 103 84 15 10 41 30 57 46 16 15 33 27 37 27 4 0
19 11 33 25 14 14 28 25 31 25 7 0 13 5 75 60 25 22 49 40 53 40 5 0 25 16 45
35 20 19 43 35 50 35 7 0 10 5 7 10 -3 6 -1 10 4 10 10 0 43 25 77 58 7 6 15
12 19 12 7 0 21 12 76 63 22 20 47 37 55 37 9 0 12 5 9 10 -3 6 -1 10 5 10 6
0 21 9 33 20 66 61 113 100 119 100 5 0 25 16 45 35 20 19 43 35 51 35 7 0 11
4 8 8 -2 4 9 17 25 27 16 11 29 23 29 28 0 4 5 7 10 7 6 0 22 10 35 23 40 37
54 47 65 47 6 0 8 5 5 10 -3 6 0 10 8 10 8 0 17 7 21 15 3 8 13 15 21 15 9 0
13 5 10 10 -3 6 -1 10 5 10 6 0 21 9 33 20 67 62 103 90 119 96 10 3 18 9 18
14 0 11 51 60 63 60 4 0 23 16 43 35 19 19 42 35 50 35 8 0 12 5 9 10 -3 6 -1
10 5 10 7 0 21 11 32 25 11 14 27 25 35 25 9 0 13 3 10 6 -3 4 12 20 35 37 23
16 51 38 62 48 81 74 106 99 106 108 0 6 -45 44 -100 86 -55 42 -100 80 -100
85 0 5 -25 35 -56 67 -64 67 -381 499 -431 587 -19 33 -51 82 -71 110 -38 51
-59 87 -89 144 -9 17 -20 32 -24 32 -3 0 -65 -51 -136 -112z"/>
</g>
</svg>
